<?xml version="1.0" encoding="UTF-8" standalone="no"?>
<!-- Created with Inkscape (http://www.inkscape.org/) -->

<svg
   xmlns:dc="http://purl.org/dc/elements/1.1/"
   xmlns:cc="http://creativecommons.org/ns#"
   xmlns:rdf="http://www.w3.org/1999/02/22-rdf-syntax-ns#"
   xmlns:svg="http://www.w3.org/2000/svg"
   xmlns="http://www.w3.org/2000/svg"
   xmlns:sodipodi="http://sodipodi.sourceforge.net/DTD/sodipodi-0.dtd"
   xmlns:inkscape="http://www.inkscape.org/namespaces/inkscape"
   width="56"
   height="56"
   id="svg3055"
   version="1.1"
   inkscape:version="0.48.2 r9819"
   sodipodi:docname="icon_scale.svg"
   inkscape:export-filename="/Users/vuorijus/src/sailfish/harbour-orienteeringcompass/qml/images/icon_scale_6000_green+blue.png"
   inkscape:export-xdpi="90"
   inkscape:export-ydpi="90">
  <defs
     id="defs3057" />
  <sodipodi:namedview
     id="base"
     pagecolor="#ffffff"
     bordercolor="#666666"
     borderopacity="1.0"
     inkscape:pageopacity="0.0"
     inkscape:pageshadow="2"
     inkscape:zoom="9.9505945"
     inkscape:cx="14.023704"
     inkscape:cy="24.34102"
     inkscape:current-layer="g3061"
     showgrid="true"
     inkscape:document-units="px"
     inkscape:grid-bbox="true"
     inkscape:window-width="1390"
     inkscape:window-height="856"
     inkscape:window-x="50"
     inkscape:window-y="0"
     inkscape:window-maximized="1" />
  <metadata
     id="metadata3060">
    <rdf:RDF>
      <cc:Work
         rdf:about="">
        <dc:format>image/svg+xml</dc:format>
        <dc:type
           rdf:resource="http://purl.org/dc/dcmitype/StillImage" />
        <dc:title></dc:title>
      </cc:Work>
    </rdf:RDF>
  </metadata>
  <g
     inkscape:groupmode="layer"
     id="layer2"
     inkscape:label="Background"
     style="display:none"
     transform="translate(0,-8)">
    <rect
       style="fill:#803300;fill-opacity:1;fill-rule:nonzero;stroke:none"
       id="rect3087"
       width="56"
       height="56"
       x="0"
       y="8" />
  </g>
  <g
     inkscape:groupmode="layer"
     id="layer3"
     inkscape:label="360 src"
     style="display:none"
     transform="translate(0,-8)">
    <path
       sodipodi:type="arc"
       style="fill:#4d4d4d;fill-opacity:1;fill-rule:nonzero;stroke:none;display:inline"
       id="path3082-2"
       sodipodi:cx="38.633743"
       sodipodi:cy="36.165707"
       sodipodi:rx="24.620173"
       sodipodi:ry="24.620173"
       d="m 63.253916,36.165707 a 24.620173,24.620173 0 1 1 -49.240345,0 24.620173,24.620173 0 1 1 49.240345,0 z"
       transform="matrix(1.2591301,0,0,1.2591301,7.7950686,-38.748697)" />
    <path
       transform="matrix(1.1372788,0,0,1.1372788,12.502642,-34.341859)"
       d="m 63.253916,36.165707 a 24.620173,24.620173 0 1 1 -49.240345,0 24.620173,24.620173 0 1 1 49.240345,0 z"
       sodipodi:ry="24.620173"
       sodipodi:rx="24.620173"
       sodipodi:cy="36.165707"
       sodipodi:cx="38.633743"
       id="path3084-1"
       style="fill:#999999;fill-opacity:1;fill-rule:nonzero;stroke:none;display:inline"
       sodipodi:type="arc" />
    <text
       xml:space="preserve"
       style="font-size:40px;font-style:normal;font-weight:normal;line-height:125%;letter-spacing:0px;word-spacing:0px;fill:#000000;fill-opacity:1;stroke:none;display:inline;font-family:Sans"
       x="34.082344"
       y="21.046686"
       id="text3089-1"
       sodipodi:linespacing="125%"><tspan
         sodipodi:role="line"
         id="tspan3091-1"
         x="34.082344"
         y="21.046686"
         style="font-size:40px;font-style:normal;font-variant:normal;font-weight:normal;font-stretch:condensed;text-align:start;line-height:125%;writing-mode:lr-tb;text-anchor:start;font-family:Arial Narrow;-inkscape-font-specification:Arial Narrow Condensed">360</tspan></text>
  </g>
  <g
     id="layer1"
     inkscape:label="360 white"
     inkscape:groupmode="layer"
     style="display:none"
     transform="translate(0,-8)">
    <path
       style="fill:#ffffff;fill-opacity:1;fill-rule:nonzero;stroke:none"
       d="M 28,9 C 13.088311,9 1,21.088311 1,36 1,50.911689 13.088311,63 28,63 37.363049,63 45.611448,58.235234 50.454637,50.996976 l -3.238911,0 C 42.752357,56.708877 35.810774,60.387097 28,60.387097 14.531378,60.387097 3.6129032,49.468622 3.6129032,36 3.6129032,22.531378 14.531378,11.612903 28,11.612903 c 7.797153,0 14.724259,3.668069 19.188508,9.362904 l 3.266129,0 C 45.609712,13.748327 37.354765,9 28,9 z"
       id="path3082"
       inkscape:export-filename="/Users/vuorijus/src/sailfish/harbour-orienteeringcompass/qml/images/icon_scale_360_white.png"
       inkscape:export-xdpi="92.900002"
       inkscape:export-ydpi="92.900002"
       inkscape:connector-curvature="0" />
    <text
       xml:space="preserve"
       style="font-size:40px;font-style:normal;font-weight:normal;line-height:125%;letter-spacing:0px;word-spacing:0px;fill:#ffffff;fill-opacity:1;stroke:none;font-family:Sans"
       x="11.123297"
       y="47.649902"
       id="text3089"
       sodipodi:linespacing="125%"
       inkscape:export-filename="/Users/vuorijus/src/sailfish/harbour-orienteeringcompass/qml/images/icon_scale_360_white.png"
       inkscape:export-xdpi="92.900002"
       inkscape:export-ydpi="92.900002"><tspan
         sodipodi:role="line"
         id="tspan3091"
         x="11.123297"
         y="47.649902"
         style="font-size:33px;font-style:normal;font-variant:normal;font-weight:normal;font-stretch:condensed;text-align:start;line-height:125%;writing-mode:lr-tb;text-anchor:start;fill:#ffffff;font-family:Arial Narrow;-inkscape-font-specification:Arial Narrow Condensed">360</tspan></text>
  </g>
  <g
     transform="translate(0,-8)"
     style="display:none"
     inkscape:groupmode="layer"
     inkscape:label="360 black"
     id="g3127">
    <path
       inkscape:connector-curvature="0"
       inkscape:export-ydpi="92.900002"
       inkscape:export-xdpi="92.900002"
       inkscape:export-filename="/Users/vuorijus/src/sailfish/harbour-orienteeringcompass/qml/images/icon_scale_360_white.png"
       id="path3129"
       d="M 28,9 C 13.088311,9 1,21.088311 1,36 1,50.911689 13.088311,63 28,63 37.363049,63 45.611448,58.235234 50.454637,50.996976 l -3.238911,0 C 42.752357,56.708877 35.810774,60.387097 28,60.387097 14.531378,60.387097 3.6129032,49.468622 3.6129032,36 3.6129032,22.531378 14.531378,11.612903 28,11.612903 c 7.797153,0 14.724259,3.668069 19.188508,9.362904 l 3.266129,0 C 45.609712,13.748327 37.354765,9 28,9 z"
       style="fill:#000000;fill-opacity:1;fill-rule:nonzero;stroke:none" />
    <text
       inkscape:export-ydpi="92.900002"
       inkscape:export-xdpi="92.900002"
       inkscape:export-filename="/Users/vuorijus/src/sailfish/harbour-orienteeringcompass/qml/images/icon_scale_360_white.png"
       sodipodi:linespacing="125%"
       id="text3131"
       y="47.649902"
       x="11.123297"
       style="font-size:40px;font-style:normal;font-weight:normal;line-height:125%;letter-spacing:0px;word-spacing:0px;fill:#000000;fill-opacity:1;stroke:none;font-family:Sans"
       xml:space="preserve"><tspan
         style="font-size:33px;font-style:normal;font-variant:normal;font-weight:normal;font-stretch:condensed;text-align:start;line-height:125%;writing-mode:lr-tb;text-anchor:start;fill:#000000;font-family:Arial Narrow;-inkscape-font-specification:Arial Narrow Condensed"
         y="47.649902"
         x="11.123297"
         id="tspan3133"
         sodipodi:role="line">360</tspan></text>
  </g>
  <g
     id="g3135"
     inkscape:label="360 red"
     inkscape:groupmode="layer"
     style="display:none"
     transform="translate(0,-8)">
    <path
       style="fill:#ff0000;fill-opacity:1;fill-rule:nonzero;stroke:none"
       d="M 28,9 C 13.088311,9 1,21.088311 1,36 1,50.911689 13.088311,63 28,63 37.363049,63 45.611448,58.235234 50.454637,50.996976 l -3.238911,0 C 42.752357,56.708877 35.810774,60.387097 28,60.387097 14.531378,60.387097 3.6129032,49.468622 3.6129032,36 3.6129032,22.531378 14.531378,11.612903 28,11.612903 c 7.797153,0 14.724259,3.668069 19.188508,9.362904 l 3.266129,0 C 45.609712,13.748327 37.354765,9 28,9 z"
       id="path3137"
       inkscape:export-filename="/Users/vuorijus/src/sailfish/harbour-orienteeringcompass/qml/images/icon_scale_360_white.png"
       inkscape:export-xdpi="92.900002"
       inkscape:export-ydpi="92.900002"
       inkscape:connector-curvature="0" />
    <text
       xml:space="preserve"
       style="font-size:40px;font-style:normal;font-weight:normal;line-height:125%;letter-spacing:0px;word-spacing:0px;fill:#ff0000;fill-opacity:1;stroke:none;font-family:Sans"
       x="11.123297"
       y="47.649902"
       id="text3139"
       sodipodi:linespacing="125%"
       inkscape:export-filename="/Users/vuorijus/src/sailfish/harbour-orienteeringcompass/qml/images/icon_scale_360_white.png"
       inkscape:export-xdpi="92.900002"
       inkscape:export-ydpi="92.900002"><tspan
         sodipodi:role="line"
         id="tspan3141"
         x="11.123297"
         y="47.649902"
         style="font-size:33px;font-style:normal;font-variant:normal;font-weight:normal;font-stretch:condensed;text-align:start;line-height:125%;writing-mode:lr-tb;text-anchor:start;fill:#ff0000;font-family:Arial Narrow;-inkscape-font-specification:Arial Narrow Condensed">360</tspan></text>
  </g>
  <g
     transform="translate(0,-8)"
     style="display:none"
     inkscape:groupmode="layer"
     inkscape:label="360 green"
     id="g3143">
    <path
       inkscape:connector-curvature="0"
       inkscape:export-ydpi="92.900002"
       inkscape:export-xdpi="92.900002"
       inkscape:export-filename="/Users/vuorijus/src/sailfish/harbour-orienteeringcompass/qml/images/icon_scale_360_white.png"
       id="path3145"
       d="M 28,9 C 13.088311,9 1,21.088311 1,36 1,50.911689 13.088311,63 28,63 37.363049,63 45.611448,58.235234 50.454637,50.996976 l -3.238911,0 C 42.752357,56.708877 35.810774,60.387097 28,60.387097 14.531378,60.387097 3.6129032,49.468622 3.6129032,36 3.6129032,22.531378 14.531378,11.612903 28,11.612903 c 7.797153,0 14.724259,3.668069 19.188508,9.362904 l 3.266129,0 C 45.609712,13.748327 37.354765,9 28,9 z"
       style="fill:#00ff00;fill-opacity:1;fill-rule:nonzero;stroke:none" />
    <text
       inkscape:export-ydpi="92.900002"
       inkscape:export-xdpi="92.900002"
       inkscape:export-filename="/Users/vuorijus/src/sailfish/harbour-orienteeringcompass/qml/images/icon_scale_360_white.png"
       sodipodi:linespacing="125%"
       id="text3147"
       y="47.649902"
       x="11.123297"
       style="font-size:40px;font-style:normal;font-weight:normal;line-height:125%;letter-spacing:0px;word-spacing:0px;fill:#00ff00;fill-opacity:1;stroke:none;font-family:Sans"
       xml:space="preserve"><tspan
         style="font-size:33px;font-style:normal;font-variant:normal;font-weight:normal;font-stretch:condensed;text-align:start;line-height:125%;writing-mode:lr-tb;text-anchor:start;fill:#00ff00;font-family:Arial Narrow;-inkscape-font-specification:Arial Narrow Condensed"
         y="47.649902"
         x="11.123297"
         id="tspan3149"
         sodipodi:role="line">360</tspan></text>
  </g>
  <g
     id="g3151"
     inkscape:label="360 blue"
     inkscape:groupmode="layer"
     style="display:none"
     transform="translate(0,-8)">
    <path
       style="fill:#0000ff;fill-opacity:1;fill-rule:nonzero;stroke:none"
       d="M 28,9 C 13.088311,9 1,21.088311 1,36 1,50.911689 13.088311,63 28,63 37.363049,63 45.611448,58.235234 50.454637,50.996976 l -3.238911,0 C 42.752357,56.708877 35.810774,60.387097 28,60.387097 14.531378,60.387097 3.6129032,49.468622 3.6129032,36 3.6129032,22.531378 14.531378,11.612903 28,11.612903 c 7.797153,0 14.724259,3.668069 19.188508,9.362904 l 3.266129,0 C 45.609712,13.748327 37.354765,9 28,9 z"
       id="path3153"
       inkscape:export-filename="/Users/vuorijus/src/sailfish/harbour-orienteeringcompass/qml/images/icon_scale_360_white.png"
       inkscape:export-xdpi="92.900002"
       inkscape:export-ydpi="92.900002"
       inkscape:connector-curvature="0" />
    <text
       xml:space="preserve"
       style="font-size:40px;font-style:normal;font-weight:normal;line-height:125%;letter-spacing:0px;word-spacing:0px;fill:#0000ff;fill-opacity:1;stroke:none;font-family:Sans"
       x="11.123297"
       y="47.649902"
       id="text3155"
       sodipodi:linespacing="125%"
       inkscape:export-filename="/Users/vuorijus/src/sailfish/harbour-orienteeringcompass/qml/images/icon_scale_360_white.png"
       inkscape:export-xdpi="92.900002"
       inkscape:export-ydpi="92.900002"><tspan
         sodipodi:role="line"
         id="tspan3157"
         x="11.123297"
         y="47.649902"
         style="font-size:33px;font-style:normal;font-variant:normal;font-weight:normal;font-stretch:condensed;text-align:start;line-height:125%;writing-mode:lr-tb;text-anchor:start;fill:#0000ff;font-family:Arial Narrow;-inkscape-font-specification:Arial Narrow Condensed">360</tspan></text>
  </g>
  <g
     transform="translate(0,-8)"
     style="display:none"
     inkscape:groupmode="layer"
     inkscape:label="360 red+green"
     id="g3159">
    <path
       inkscape:connector-curvature="0"
       inkscape:export-ydpi="92.900002"
       inkscape:export-xdpi="92.900002"
       inkscape:export-filename="/Users/vuorijus/src/sailfish/harbour-orienteeringcompass/qml/images/icon_scale_360_white.png"
       id="path3161"
       d="M 28,9 C 13.088311,9 1,21.088311 1,36 1,50.911689 13.088311,63 28,63 37.363049,63 45.611448,58.235234 50.454637,50.996976 l -3.238911,0 C 42.752357,56.708877 35.810774,60.387097 28,60.387097 14.531378,60.387097 3.6129032,49.468622 3.6129032,36 3.6129032,22.531378 14.531378,11.612903 28,11.612903 c 7.797153,0 14.724259,3.668069 19.188508,9.362904 l 3.266129,0 C 45.609712,13.748327 37.354765,9 28,9 z"
       style="fill:#ffff00;fill-opacity:1;fill-rule:nonzero;stroke:none" />
    <text
       inkscape:export-ydpi="92.900002"
       inkscape:export-xdpi="92.900002"
       inkscape:export-filename="/Users/vuorijus/src/sailfish/harbour-orienteeringcompass/qml/images/icon_scale_360_white.png"
       sodipodi:linespacing="125%"
       id="text3163"
       y="47.649902"
       x="11.123297"
       style="font-size:40px;font-style:normal;font-weight:normal;line-height:125%;letter-spacing:0px;word-spacing:0px;fill:#ffff00;fill-opacity:1;stroke:none;font-family:Sans"
       xml:space="preserve"><tspan
         style="font-size:33px;font-style:normal;font-variant:normal;font-weight:normal;font-stretch:condensed;text-align:start;line-height:125%;writing-mode:lr-tb;text-anchor:start;fill:#ffff00;font-family:Arial Narrow;-inkscape-font-specification:Arial Narrow Condensed"
         y="47.649902"
         x="11.123297"
         id="tspan3165"
         sodipodi:role="line">360</tspan></text>
  </g>
  <g
     id="g3167"
     inkscape:label="360 red+blue"
     inkscape:groupmode="layer"
     style="display:none"
     transform="translate(0,-8)">
    <path
       style="fill:#ff00ff;fill-opacity:1;fill-rule:nonzero;stroke:none"
       d="M 28,9 C 13.088311,9 1,21.088311 1,36 1,50.911689 13.088311,63 28,63 37.363049,63 45.611448,58.235234 50.454637,50.996976 l -3.238911,0 C 42.752357,56.708877 35.810774,60.387097 28,60.387097 14.531378,60.387097 3.6129032,49.468622 3.6129032,36 3.6129032,22.531378 14.531378,11.612903 28,11.612903 c 7.797153,0 14.724259,3.668069 19.188508,9.362904 l 3.266129,0 C 45.609712,13.748327 37.354765,9 28,9 z"
       id="path3169"
       inkscape:export-filename="/Users/vuorijus/src/sailfish/harbour-orienteeringcompass/qml/images/icon_scale_360_white.png"
       inkscape:export-xdpi="92.900002"
       inkscape:export-ydpi="92.900002"
       inkscape:connector-curvature="0" />
    <text
       xml:space="preserve"
       style="font-size:40px;font-style:normal;font-weight:normal;line-height:125%;letter-spacing:0px;word-spacing:0px;fill:#ff00ff;fill-opacity:1;stroke:none;font-family:Sans"
       x="11.123297"
       y="47.649902"
       id="text3171"
       sodipodi:linespacing="125%"
       inkscape:export-filename="/Users/vuorijus/src/sailfish/harbour-orienteeringcompass/qml/images/icon_scale_360_white.png"
       inkscape:export-xdpi="92.900002"
       inkscape:export-ydpi="92.900002"><tspan
         sodipodi:role="line"
         id="tspan3173"
         x="11.123297"
         y="47.649902"
         style="font-size:33px;font-style:normal;font-variant:normal;font-weight:normal;font-stretch:condensed;text-align:start;line-height:125%;writing-mode:lr-tb;text-anchor:start;fill:#ff00ff;font-family:Arial Narrow;-inkscape-font-specification:Arial Narrow Condensed">360</tspan></text>
  </g>
  <g
     transform="translate(0,-8)"
     style="display:none"
     inkscape:groupmode="layer"
     inkscape:label="360 green+blue"
     id="g3175">
    <path
       inkscape:connector-curvature="0"
       inkscape:export-ydpi="92.900002"
       inkscape:export-xdpi="92.900002"
       inkscape:export-filename="/Users/vuorijus/src/sailfish/harbour-orienteeringcompass/qml/images/icon_scale_360_white.png"
       id="path3177"
       d="M 28,9 C 13.088311,9 1,21.088311 1,36 1,50.911689 13.088311,63 28,63 37.363049,63 45.611448,58.235234 50.454637,50.996976 l -3.238911,0 C 42.752357,56.708877 35.810774,60.387097 28,60.387097 14.531378,60.387097 3.6129032,49.468622 3.6129032,36 3.6129032,22.531378 14.531378,11.612903 28,11.612903 c 7.797153,0 14.724259,3.668069 19.188508,9.362904 l 3.266129,0 C 45.609712,13.748327 37.354765,9 28,9 z"
       style="fill:#00ffff;fill-opacity:1;fill-rule:nonzero;stroke:none" />
    <text
       inkscape:export-ydpi="92.900002"
       inkscape:export-xdpi="92.900002"
       inkscape:export-filename="/Users/vuorijus/src/sailfish/harbour-orienteeringcompass/qml/images/icon_scale_360_white.png"
       sodipodi:linespacing="125%"
       id="text3179"
       y="47.649902"
       x="11.123297"
       style="font-size:40px;font-style:normal;font-weight:normal;line-height:125%;letter-spacing:0px;word-spacing:0px;fill:#00ffff;fill-opacity:1;stroke:none;font-family:Sans"
       xml:space="preserve"><tspan
         style="font-size:33px;font-style:normal;font-variant:normal;font-weight:normal;font-stretch:condensed;text-align:start;line-height:125%;writing-mode:lr-tb;text-anchor:start;fill:#00ffff;font-family:Arial Narrow;-inkscape-font-specification:Arial Narrow Condensed"
         y="47.649902"
         x="11.123297"
         id="tspan3181"
         sodipodi:role="line">360</tspan></text>
  </g>
  <g
     inkscape:groupmode="layer"
     id="layer4"
     inkscape:label="400 white"
     style="display:none"
     transform="translate(0,-8)">
    <path
       style="fill:#ffffff;fill-opacity:1;fill-rule:nonzero;stroke:none;display:inline"
       d="M 28.00012,9 C 13.088431,9 1.0001198,21.088311 1.0001198,36 c 0,14.911689 12.0883112,27 27.0000002,27 9.363049,0 17.611448,-4.764766 22.454637,-12.003024 l -3.238911,0 C 42.752477,56.708877 35.810894,60.387097 28.00012,60.387097 14.531498,60.387097 3.6130228,49.468622 3.6130228,36 c 0,-13.468622 10.9184752,-24.387097 24.3870972,-24.387097 7.797153,0 14.724259,3.668069 19.188508,9.362904 l 3.266129,0 C 45.609832,13.748327 37.354885,9 28.00012,9 z"
       id="path3082-7"
       inkscape:export-filename="/Users/vuorijus/src/sailfish/harbour-orienteeringcompass/qml/images/icon_scale_360_white.png"
       inkscape:export-xdpi="92.900002"
       inkscape:export-ydpi="92.900002"
       inkscape:connector-curvature="0" />
    <text
       xml:space="preserve"
       style="font-size:40px;font-style:normal;font-weight:normal;line-height:125%;letter-spacing:0px;word-spacing:0px;fill:#ffffff;fill-opacity:1;stroke:none;display:inline;font-family:Sans"
       x="11.123415"
       y="47.649902"
       id="text3089-2"
       sodipodi:linespacing="125%"
       inkscape:export-filename="/Users/vuorijus/src/sailfish/harbour-orienteeringcompass/qml/images/icon_scale_360_white.png"
       inkscape:export-xdpi="92.900002"
       inkscape:export-ydpi="92.900002"><tspan
         sodipodi:role="line"
         id="tspan3091-3"
         x="11.123415"
         y="47.649902"
         style="font-size:33px;font-style:normal;font-variant:normal;font-weight:normal;font-stretch:condensed;text-align:start;line-height:125%;writing-mode:lr-tb;text-anchor:start;fill:#ffffff;font-family:Arial Narrow;-inkscape-font-specification:Arial Narrow Condensed">400</tspan></text>
  </g>
  <g
     transform="translate(0,-8)"
     style="display:none"
     inkscape:label="400 black"
     id="g3071"
     inkscape:groupmode="layer">
    <path
       inkscape:connector-curvature="0"
       inkscape:export-ydpi="92.900002"
       inkscape:export-xdpi="92.900002"
       inkscape:export-filename="/Users/vuorijus/src/sailfish/harbour-orienteeringcompass/qml/images/icon_scale_360_white.png"
       id="path3073"
       d="M 28.00012,9 C 13.088431,9 1.0001198,21.088311 1.0001198,36 c 0,14.911689 12.0883112,27 27.0000002,27 9.363049,0 17.611448,-4.764766 22.454637,-12.003024 l -3.238911,0 C 42.752477,56.708877 35.810894,60.387097 28.00012,60.387097 14.531498,60.387097 3.6130228,49.468622 3.6130228,36 c 0,-13.468622 10.9184752,-24.387097 24.3870972,-24.387097 7.797153,0 14.724259,3.668069 19.188508,9.362904 l 3.266129,0 C 45.609832,13.748327 37.354885,9 28.00012,9 z"
       style="fill:#000000;fill-opacity:1;fill-rule:nonzero;stroke:none;display:inline" />
    <text
       inkscape:export-ydpi="92.900002"
       inkscape:export-xdpi="92.900002"
       inkscape:export-filename="/Users/vuorijus/src/sailfish/harbour-orienteeringcompass/qml/images/icon_scale_360_white.png"
       sodipodi:linespacing="125%"
       id="text3075"
       y="47.649902"
       x="11.123415"
       style="font-size:40px;font-style:normal;font-weight:normal;line-height:125%;letter-spacing:0px;word-spacing:0px;fill:#000000;fill-opacity:1;stroke:none;display:inline;font-family:Sans"
       xml:space="preserve"><tspan
         style="font-size:33px;font-style:normal;font-variant:normal;font-weight:normal;font-stretch:condensed;text-align:start;line-height:125%;writing-mode:lr-tb;text-anchor:start;fill:#000000;font-family:Arial Narrow;-inkscape-font-specification:Arial Narrow Condensed"
         y="47.649902"
         x="11.123415"
         id="tspan3077"
         sodipodi:role="line">400</tspan></text>
  </g>
  <g
     inkscape:groupmode="layer"
     id="g3079"
     inkscape:label="400 red"
     style="display:none"
     transform="translate(0,-8)">
    <path
       style="fill:#ff0000;fill-opacity:1;fill-rule:nonzero;stroke:none;display:inline"
       d="M 28.00012,9 C 13.088431,9 1.0001198,21.088311 1.0001198,36 c 0,14.911689 12.0883112,27 27.0000002,27 9.363049,0 17.611448,-4.764766 22.454637,-12.003024 l -3.238911,0 C 42.752477,56.708877 35.810894,60.387097 28.00012,60.387097 14.531498,60.387097 3.6130228,49.468622 3.6130228,36 c 0,-13.468622 10.9184752,-24.387097 24.3870972,-24.387097 7.797153,0 14.724259,3.668069 19.188508,9.362904 l 3.266129,0 C 45.609832,13.748327 37.354885,9 28.00012,9 z"
       id="path3081"
       inkscape:export-filename="/Users/vuorijus/src/sailfish/harbour-orienteeringcompass/qml/images/icon_scale_360_white.png"
       inkscape:export-xdpi="92.900002"
       inkscape:export-ydpi="92.900002"
       inkscape:connector-curvature="0" />
    <text
       xml:space="preserve"
       style="font-size:40px;font-style:normal;font-weight:normal;line-height:125%;letter-spacing:0px;word-spacing:0px;fill:#ff0000;fill-opacity:1;stroke:none;display:inline;font-family:Sans"
       x="11.123415"
       y="47.649902"
       id="text3083"
       sodipodi:linespacing="125%"
       inkscape:export-filename="/Users/vuorijus/src/sailfish/harbour-orienteeringcompass/qml/images/icon_scale_360_white.png"
       inkscape:export-xdpi="92.900002"
       inkscape:export-ydpi="92.900002"><tspan
         sodipodi:role="line"
         id="tspan3085"
         x="11.123415"
         y="47.649902"
         style="font-size:33px;font-style:normal;font-variant:normal;font-weight:normal;font-stretch:condensed;text-align:start;line-height:125%;writing-mode:lr-tb;text-anchor:start;fill:#ff0000;font-family:Arial Narrow;-inkscape-font-specification:Arial Narrow Condensed">400</tspan></text>
  </g>
  <g
     transform="translate(0,-8)"
     style="display:none"
     inkscape:label="400 green"
     id="g3087"
     inkscape:groupmode="layer">
    <path
       inkscape:connector-curvature="0"
       inkscape:export-ydpi="92.900002"
       inkscape:export-xdpi="92.900002"
       inkscape:export-filename="/Users/vuorijus/src/sailfish/harbour-orienteeringcompass/qml/images/icon_scale_360_white.png"
       id="path3089"
       d="M 28.00012,9 C 13.088431,9 1.0001198,21.088311 1.0001198,36 c 0,14.911689 12.0883112,27 27.0000002,27 9.363049,0 17.611448,-4.764766 22.454637,-12.003024 l -3.238911,0 C 42.752477,56.708877 35.810894,60.387097 28.00012,60.387097 14.531498,60.387097 3.6130228,49.468622 3.6130228,36 c 0,-13.468622 10.9184752,-24.387097 24.3870972,-24.387097 7.797153,0 14.724259,3.668069 19.188508,9.362904 l 3.266129,0 C 45.609832,13.748327 37.354885,9 28.00012,9 z"
       style="fill:#00ff00;fill-opacity:1;fill-rule:nonzero;stroke:none;display:inline" />
    <text
       inkscape:export-ydpi="92.900002"
       inkscape:export-xdpi="92.900002"
       inkscape:export-filename="/Users/vuorijus/src/sailfish/harbour-orienteeringcompass/qml/images/icon_scale_360_white.png"
       sodipodi:linespacing="125%"
       id="text3091"
       y="47.649902"
       x="11.123415"
       style="font-size:40px;font-style:normal;font-weight:normal;line-height:125%;letter-spacing:0px;word-spacing:0px;fill:#00ff00;fill-opacity:1;stroke:none;display:inline;font-family:Sans"
       xml:space="preserve"><tspan
         style="font-size:33px;font-style:normal;font-variant:normal;font-weight:normal;font-stretch:condensed;text-align:start;line-height:125%;writing-mode:lr-tb;text-anchor:start;fill:#00ff00;font-family:Arial Narrow;-inkscape-font-specification:Arial Narrow Condensed"
         y="47.649902"
         x="11.123415"
         id="tspan3093"
         sodipodi:role="line">400</tspan></text>
  </g>
  <g
     inkscape:groupmode="layer"
     id="g3095"
     inkscape:label="400 blue"
     style="display:none"
     transform="translate(0,-8)">
    <path
       style="fill:#0000ff;fill-opacity:1;fill-rule:nonzero;stroke:none;display:inline"
       d="M 28.00012,9 C 13.088431,9 1.0001198,21.088311 1.0001198,36 c 0,14.911689 12.0883112,27 27.0000002,27 9.363049,0 17.611448,-4.764766 22.454637,-12.003024 l -3.238911,0 C 42.752477,56.708877 35.810894,60.387097 28.00012,60.387097 14.531498,60.387097 3.6130228,49.468622 3.6130228,36 c 0,-13.468622 10.9184752,-24.387097 24.3870972,-24.387097 7.797153,0 14.724259,3.668069 19.188508,9.362904 l 3.266129,0 C 45.609832,13.748327 37.354885,9 28.00012,9 z"
       id="path3097"
       inkscape:export-filename="/Users/vuorijus/src/sailfish/harbour-orienteeringcompass/qml/images/icon_scale_360_white.png"
       inkscape:export-xdpi="92.900002"
       inkscape:export-ydpi="92.900002"
       inkscape:connector-curvature="0" />
    <text
       xml:space="preserve"
       style="font-size:40px;font-style:normal;font-weight:normal;line-height:125%;letter-spacing:0px;word-spacing:0px;fill:#0000ff;fill-opacity:1;stroke:none;display:inline;font-family:Sans"
       x="11.123415"
       y="47.649902"
       id="text3099"
       sodipodi:linespacing="125%"
       inkscape:export-filename="/Users/vuorijus/src/sailfish/harbour-orienteeringcompass/qml/images/icon_scale_360_white.png"
       inkscape:export-xdpi="92.900002"
       inkscape:export-ydpi="92.900002"><tspan
         sodipodi:role="line"
         id="tspan3101"
         x="11.123415"
         y="47.649902"
         style="font-size:33px;font-style:normal;font-variant:normal;font-weight:normal;font-stretch:condensed;text-align:start;line-height:125%;writing-mode:lr-tb;text-anchor:start;fill:#0000ff;font-family:Arial Narrow;-inkscape-font-specification:Arial Narrow Condensed">400</tspan></text>
  </g>
  <g
     transform="translate(0,-8)"
     style="display:none"
     inkscape:label="400 red+green"
     id="g3103"
     inkscape:groupmode="layer">
    <path
       inkscape:connector-curvature="0"
       inkscape:export-ydpi="92.900002"
       inkscape:export-xdpi="92.900002"
       inkscape:export-filename="/Users/vuorijus/src/sailfish/harbour-orienteeringcompass/qml/images/icon_scale_360_white.png"
       id="path3105"
       d="M 28.00012,9 C 13.088431,9 1.0001198,21.088311 1.0001198,36 c 0,14.911689 12.0883112,27 27.0000002,27 9.363049,0 17.611448,-4.764766 22.454637,-12.003024 l -3.238911,0 C 42.752477,56.708877 35.810894,60.387097 28.00012,60.387097 14.531498,60.387097 3.6130228,49.468622 3.6130228,36 c 0,-13.468622 10.9184752,-24.387097 24.3870972,-24.387097 7.797153,0 14.724259,3.668069 19.188508,9.362904 l 3.266129,0 C 45.609832,13.748327 37.354885,9 28.00012,9 z"
       style="fill:#ffff00;fill-opacity:1;fill-rule:nonzero;stroke:none;display:inline" />
    <text
       inkscape:export-ydpi="92.900002"
       inkscape:export-xdpi="92.900002"
       inkscape:export-filename="/Users/vuorijus/src/sailfish/harbour-orienteeringcompass/qml/images/icon_scale_360_white.png"
       sodipodi:linespacing="125%"
       id="text3107"
       y="47.649902"
       x="11.123415"
       style="font-size:40px;font-style:normal;font-weight:normal;line-height:125%;letter-spacing:0px;word-spacing:0px;fill:#ffff00;fill-opacity:1;stroke:none;display:inline;font-family:Sans"
       xml:space="preserve"><tspan
         style="font-size:33px;font-style:normal;font-variant:normal;font-weight:normal;font-stretch:condensed;text-align:start;line-height:125%;writing-mode:lr-tb;text-anchor:start;fill:#ffff00;font-family:Arial Narrow;-inkscape-font-specification:Arial Narrow Condensed"
         y="47.649902"
         x="11.123415"
         id="tspan3109"
         sodipodi:role="line">400</tspan></text>
  </g>
  <g
     inkscape:groupmode="layer"
     id="g3111"
     inkscape:label="400 red+blue"
     style="display:none"
     transform="translate(0,-8)">
    <path
       style="fill:#ff00ff;fill-opacity:1;fill-rule:nonzero;stroke:none;display:inline"
       d="M 28.00012,9 C 13.088431,9 1.0001198,21.088311 1.0001198,36 c 0,14.911689 12.0883112,27 27.0000002,27 9.363049,0 17.611448,-4.764766 22.454637,-12.003024 l -3.238911,0 C 42.752477,56.708877 35.810894,60.387097 28.00012,60.387097 14.531498,60.387097 3.6130228,49.468622 3.6130228,36 c 0,-13.468622 10.9184752,-24.387097 24.3870972,-24.387097 7.797153,0 14.724259,3.668069 19.188508,9.362904 l 3.266129,0 C 45.609832,13.748327 37.354885,9 28.00012,9 z"
       id="path3113"
       inkscape:export-filename="/Users/vuorijus/src/sailfish/harbour-orienteeringcompass/qml/images/icon_scale_360_white.png"
       inkscape:export-xdpi="92.900002"
       inkscape:export-ydpi="92.900002"
       inkscape:connector-curvature="0" />
    <text
       xml:space="preserve"
       style="font-size:40px;font-style:normal;font-weight:normal;line-height:125%;letter-spacing:0px;word-spacing:0px;fill:#ff00ff;fill-opacity:1;stroke:none;display:inline;font-family:Sans"
       x="11.123415"
       y="47.649902"
       id="text3115"
       sodipodi:linespacing="125%"
       inkscape:export-filename="/Users/vuorijus/src/sailfish/harbour-orienteeringcompass/qml/images/icon_scale_360_white.png"
       inkscape:export-xdpi="92.900002"
       inkscape:export-ydpi="92.900002"><tspan
         sodipodi:role="line"
         id="tspan3117"
         x="11.123415"
         y="47.649902"
         style="font-size:33px;font-style:normal;font-variant:normal;font-weight:normal;font-stretch:condensed;text-align:start;line-height:125%;writing-mode:lr-tb;text-anchor:start;fill:#ff00ff;font-family:Arial Narrow;-inkscape-font-specification:Arial Narrow Condensed">400</tspan></text>
  </g>
  <g
     transform="translate(0,-8)"
     style="display:none"
     inkscape:label="400 green+blue"
     id="g3119"
     inkscape:groupmode="layer">
    <path
       inkscape:connector-curvature="0"
       inkscape:export-ydpi="92.900002"
       inkscape:export-xdpi="92.900002"
       inkscape:export-filename="/Users/vuorijus/src/sailfish/harbour-orienteeringcompass/qml/images/icon_scale_360_white.png"
       id="path3121"
       d="M 28.00012,9 C 13.088431,9 1.0001198,21.088311 1.0001198,36 c 0,14.911689 12.0883112,27 27.0000002,27 9.363049,0 17.611448,-4.764766 22.454637,-12.003024 l -3.238911,0 C 42.752477,56.708877 35.810894,60.387097 28.00012,60.387097 14.531498,60.387097 3.6130228,49.468622 3.6130228,36 c 0,-13.468622 10.9184752,-24.387097 24.3870972,-24.387097 7.797153,0 14.724259,3.668069 19.188508,9.362904 l 3.266129,0 C 45.609832,13.748327 37.354885,9 28.00012,9 z"
       style="fill:#00ffff;fill-opacity:1;fill-rule:nonzero;stroke:none;display:inline" />
    <text
       inkscape:export-ydpi="92.900002"
       inkscape:export-xdpi="92.900002"
       inkscape:export-filename="/Users/vuorijus/src/sailfish/harbour-orienteeringcompass/qml/images/icon_scale_360_white.png"
       sodipodi:linespacing="125%"
       id="text3123"
       y="47.649902"
       x="11.123415"
       style="font-size:40px;font-style:normal;font-weight:normal;line-height:125%;letter-spacing:0px;word-spacing:0px;fill:#00ffff;fill-opacity:1;stroke:none;display:inline;font-family:Sans"
       xml:space="preserve"><tspan
         style="font-size:33px;font-style:normal;font-variant:normal;font-weight:normal;font-stretch:condensed;text-align:start;line-height:125%;writing-mode:lr-tb;text-anchor:start;fill:#00ffff;font-family:Arial Narrow;-inkscape-font-specification:Arial Narrow Condensed"
         y="47.649902"
         x="11.123415"
         id="tspan3125"
         sodipodi:role="line">400</tspan></text>
  </g>
  <g
     inkscape:groupmode="layer"
     id="layer5"
     inkscape:label="6000 white"
     style="display:none"
     transform="translate(0,-8)">
    <path
       style="fill:#ffffff;fill-opacity:1;fill-rule:nonzero;stroke:none;display:inline"
       d="M 28.00012,9 C 13.088431,9 1.0001195,21.088311 1.0001195,36 c 0,14.911689 12.0883115,27 27.0000005,27 9.363049,0 17.611448,-4.764766 22.454637,-12.003024 l -3.238911,0 C 42.752477,56.708877 35.810894,60.387097 28.00012,60.387097 14.531498,60.387097 3.6130225,49.468622 3.6130225,36 c 0,-13.468622 10.9184755,-24.387097 24.3870975,-24.387097 7.797153,0 14.724259,3.668069 19.188508,9.362904 l 3.266129,0 C 45.609832,13.748327 37.354885,9 28.00012,9 z"
       id="path3082-3"
       inkscape:export-filename="/Users/vuorijus/src/sailfish/harbour-orienteeringcompass/qml/images/icon_scale_360_white.png"
       inkscape:export-xdpi="92.900002"
       inkscape:export-ydpi="92.900002"
       inkscape:connector-curvature="0" />
    <text
       xml:space="preserve"
       style="font-size:40px;font-style:normal;font-weight:normal;line-height:125%;letter-spacing:0px;word-spacing:0px;fill:#ffffff;fill-opacity:1;stroke:none;display:inline;font-family:Sans"
       x="11.123416"
       y="47.649902"
       id="text3089-3"
       sodipodi:linespacing="125%"
       inkscape:export-filename="/Users/vuorijus/src/sailfish/harbour-orienteeringcompass/qml/images/icon_scale_360_white.png"
       inkscape:export-xdpi="92.900002"
       inkscape:export-ydpi="92.900002"><tspan
         sodipodi:role="line"
         id="tspan3091-4"
         x="11.123416"
         y="47.649902"
         style="font-size:33px;font-style:normal;font-variant:normal;font-weight:normal;font-stretch:condensed;text-align:start;line-height:125%;writing-mode:lr-tb;text-anchor:start;fill:#ffffff;font-family:Arial Narrow;-inkscape-font-specification:Arial Narrow Condensed">60<tspan
   style="font-size:15.5px"
   id="tspan3199">00</tspan></tspan></text>
  </g>
  <g
     transform="translate(0,-8)"
     style="display:none"
     inkscape:label="6000 black"
     id="g3001"
     inkscape:groupmode="layer">
    <path
       inkscape:connector-curvature="0"
       inkscape:export-ydpi="92.900002"
       inkscape:export-xdpi="92.900002"
       inkscape:export-filename="/Users/vuorijus/src/sailfish/harbour-orienteeringcompass/qml/images/icon_scale_360_white.png"
       id="path3003"
       d="M 28.00012,9 C 13.088431,9 1.0001195,21.088311 1.0001195,36 c 0,14.911689 12.0883115,27 27.0000005,27 9.363049,0 17.611448,-4.764766 22.454637,-12.003024 l -3.238911,0 C 42.752477,56.708877 35.810894,60.387097 28.00012,60.387097 14.531498,60.387097 3.6130225,49.468622 3.6130225,36 c 0,-13.468622 10.9184755,-24.387097 24.3870975,-24.387097 7.797153,0 14.724259,3.668069 19.188508,9.362904 l 3.266129,0 C 45.609832,13.748327 37.354885,9 28.00012,9 z"
       style="fill:#000000;fill-opacity:1;fill-rule:nonzero;stroke:none;display:inline" />
    <text
       inkscape:export-ydpi="92.900002"
       inkscape:export-xdpi="92.900002"
       inkscape:export-filename="/Users/vuorijus/src/sailfish/harbour-orienteeringcompass/qml/images/icon_scale_360_white.png"
       sodipodi:linespacing="125%"
       id="text3005"
       y="47.649902"
       x="11.123416"
       style="font-size:40px;font-style:normal;font-weight:normal;line-height:125%;letter-spacing:0px;word-spacing:0px;fill:#000000;fill-opacity:1;stroke:none;display:inline;font-family:Sans"
       xml:space="preserve"><tspan
         style="font-size:33px;font-style:normal;font-variant:normal;font-weight:normal;font-stretch:condensed;text-align:start;line-height:125%;writing-mode:lr-tb;text-anchor:start;fill:#000000;font-family:Arial Narrow;-inkscape-font-specification:Arial Narrow Condensed"
         y="47.649902"
         x="11.123416"
         id="tspan3007"
         sodipodi:role="line">60<tspan
   id="tspan3009"
   style="font-size:15.5px;fill:#000000">00</tspan></tspan></text>
  </g>
  <g
     inkscape:groupmode="layer"
     id="g3011"
     inkscape:label="6000 red"
     style="display:none"
     transform="translate(0,-8)">
    <path
       style="fill:#ff0000;fill-opacity:1;fill-rule:nonzero;stroke:none;display:inline"
       d="M 28.00012,9 C 13.088431,9 1.0001195,21.088311 1.0001195,36 c 0,14.911689 12.0883115,27 27.0000005,27 9.363049,0 17.611448,-4.764766 22.454637,-12.003024 l -3.238911,0 C 42.752477,56.708877 35.810894,60.387097 28.00012,60.387097 14.531498,60.387097 3.6130225,49.468622 3.6130225,36 c 0,-13.468622 10.9184755,-24.387097 24.3870975,-24.387097 7.797153,0 14.724259,3.668069 19.188508,9.362904 l 3.266129,0 C 45.609832,13.748327 37.354885,9 28.00012,9 z"
       id="path3013"
       inkscape:export-filename="/Users/vuorijus/src/sailfish/harbour-orienteeringcompass/qml/images/icon_scale_360_white.png"
       inkscape:export-xdpi="92.900002"
       inkscape:export-ydpi="92.900002"
       inkscape:connector-curvature="0" />
    <text
       xml:space="preserve"
       style="font-size:40px;font-style:normal;font-weight:normal;line-height:125%;letter-spacing:0px;word-spacing:0px;fill:#ff0000;fill-opacity:1;stroke:none;display:inline;font-family:Sans"
       x="11.123416"
       y="47.649902"
       id="text3015"
       sodipodi:linespacing="125%"
       inkscape:export-filename="/Users/vuorijus/src/sailfish/harbour-orienteeringcompass/qml/images/icon_scale_360_white.png"
       inkscape:export-xdpi="92.900002"
       inkscape:export-ydpi="92.900002"><tspan
         sodipodi:role="line"
         id="tspan3017"
         x="11.123416"
         y="47.649902"
         style="font-size:33px;font-style:normal;font-variant:normal;font-weight:normal;font-stretch:condensed;text-align:start;line-height:125%;writing-mode:lr-tb;text-anchor:start;fill:#ff0000;font-family:Arial Narrow;-inkscape-font-specification:Arial Narrow Condensed">60<tspan
   style="font-size:15.5px;fill:#ff0000"
   id="tspan3019">00</tspan></tspan></text>
  </g>
  <g
     transform="translate(0,-8)"
     style="display:none"
     inkscape:label="6000 green"
     id="g3021"
     inkscape:groupmode="layer">
    <path
       inkscape:connector-curvature="0"
       inkscape:export-ydpi="92.900002"
       inkscape:export-xdpi="92.900002"
       inkscape:export-filename="/Users/vuorijus/src/sailfish/harbour-orienteeringcompass/qml/images/icon_scale_360_white.png"
       id="path3023"
       d="M 28.00012,9 C 13.088431,9 1.0001195,21.088311 1.0001195,36 c 0,14.911689 12.0883115,27 27.0000005,27 9.363049,0 17.611448,-4.764766 22.454637,-12.003024 l -3.238911,0 C 42.752477,56.708877 35.810894,60.387097 28.00012,60.387097 14.531498,60.387097 3.6130225,49.468622 3.6130225,36 c 0,-13.468622 10.9184755,-24.387097 24.3870975,-24.387097 7.797153,0 14.724259,3.668069 19.188508,9.362904 l 3.266129,0 C 45.609832,13.748327 37.354885,9 28.00012,9 z"
       style="fill:#00ff00;fill-opacity:1;fill-rule:nonzero;stroke:none;display:inline" />
    <text
       inkscape:export-ydpi="92.900002"
       inkscape:export-xdpi="92.900002"
       inkscape:export-filename="/Users/vuorijus/src/sailfish/harbour-orienteeringcompass/qml/images/icon_scale_360_white.png"
       sodipodi:linespacing="125%"
       id="text3025"
       y="47.649902"
       x="11.123416"
       style="font-size:40px;font-style:normal;font-weight:normal;line-height:125%;letter-spacing:0px;word-spacing:0px;fill:#00ff00;fill-opacity:1;stroke:none;display:inline;font-family:Sans"
       xml:space="preserve"><tspan
         style="font-size:33px;font-style:normal;font-variant:normal;font-weight:normal;font-stretch:condensed;text-align:start;line-height:125%;writing-mode:lr-tb;text-anchor:start;fill:#00ff00;font-family:Arial Narrow;-inkscape-font-specification:Arial Narrow Condensed"
         y="47.649902"
         x="11.123416"
         id="tspan3027"
         sodipodi:role="line">60<tspan
   id="tspan3029"
   style="font-size:15.5px;fill:#00ff00">00</tspan></tspan></text>
  </g>
  <g
     inkscape:groupmode="layer"
     id="g3031"
     inkscape:label="6000 blue"
     style="display:none"
     transform="translate(0,-8)">
    <path
       style="fill:#0000ff;fill-opacity:1;fill-rule:nonzero;stroke:none;display:inline"
       d="M 28.00012,9 C 13.088431,9 1.0001195,21.088311 1.0001195,36 c 0,14.911689 12.0883115,27 27.0000005,27 9.363049,0 17.611448,-4.764766 22.454637,-12.003024 l -3.238911,0 C 42.752477,56.708877 35.810894,60.387097 28.00012,60.387097 14.531498,60.387097 3.6130225,49.468622 3.6130225,36 c 0,-13.468622 10.9184755,-24.387097 24.3870975,-24.387097 7.797153,0 14.724259,3.668069 19.188508,9.362904 l 3.266129,0 C 45.609832,13.748327 37.354885,9 28.00012,9 z"
       id="path3033"
       inkscape:export-filename="/Users/vuorijus/src/sailfish/harbour-orienteeringcompass/qml/images/icon_scale_360_white.png"
       inkscape:export-xdpi="92.900002"
       inkscape:export-ydpi="92.900002"
       inkscape:connector-curvature="0" />
    <text
       xml:space="preserve"
       style="font-size:40px;font-style:normal;font-weight:normal;line-height:125%;letter-spacing:0px;word-spacing:0px;fill:#0000ff;fill-opacity:1;stroke:none;display:inline;font-family:Sans"
       x="11.123416"
       y="47.649902"
       id="text3035"
       sodipodi:linespacing="125%"
       inkscape:export-filename="/Users/vuorijus/src/sailfish/harbour-orienteeringcompass/qml/images/icon_scale_360_white.png"
       inkscape:export-xdpi="92.900002"
       inkscape:export-ydpi="92.900002"><tspan
         sodipodi:role="line"
         id="tspan3037"
         x="11.123416"
         y="47.649902"
         style="font-size:33px;font-style:normal;font-variant:normal;font-weight:normal;font-stretch:condensed;text-align:start;line-height:125%;writing-mode:lr-tb;text-anchor:start;fill:#0000ff;font-family:Arial Narrow;-inkscape-font-specification:Arial Narrow Condensed">60<tspan
   style="font-size:15.5px;fill:#0000ff"
   id="tspan3039">00</tspan></tspan></text>
  </g>
  <g
     transform="translate(0,-8)"
     style="display:none"
     inkscape:label="6000 red+green"
     id="g3041"
     inkscape:groupmode="layer">
    <path
       inkscape:connector-curvature="0"
       inkscape:export-ydpi="92.900002"
       inkscape:export-xdpi="92.900002"
       inkscape:export-filename="/Users/vuorijus/src/sailfish/harbour-orienteeringcompass/qml/images/icon_scale_360_white.png"
       id="path3043"
       d="M 28.00012,9 C 13.088431,9 1.0001195,21.088311 1.0001195,36 c 0,14.911689 12.0883115,27 27.0000005,27 9.363049,0 17.611448,-4.764766 22.454637,-12.003024 l -3.238911,0 C 42.752477,56.708877 35.810894,60.387097 28.00012,60.387097 14.531498,60.387097 3.6130225,49.468622 3.6130225,36 c 0,-13.468622 10.9184755,-24.387097 24.3870975,-24.387097 7.797153,0 14.724259,3.668069 19.188508,9.362904 l 3.266129,0 C 45.609832,13.748327 37.354885,9 28.00012,9 z"
       style="fill:#ffff00;fill-opacity:1;fill-rule:nonzero;stroke:none;display:inline" />
    <text
       inkscape:export-ydpi="92.900002"
       inkscape:export-xdpi="92.900002"
       inkscape:export-filename="/Users/vuorijus/src/sailfish/harbour-orienteeringcompass/qml/images/icon_scale_360_white.png"
       sodipodi:linespacing="125%"
       id="text3045"
       y="47.649902"
       x="11.123416"
       style="font-size:40px;font-style:normal;font-weight:normal;line-height:125%;letter-spacing:0px;word-spacing:0px;fill:#ffff00;fill-opacity:1;stroke:none;display:inline;font-family:Sans"
       xml:space="preserve"><tspan
         style="font-size:33px;font-style:normal;font-variant:normal;font-weight:normal;font-stretch:condensed;text-align:start;line-height:125%;writing-mode:lr-tb;text-anchor:start;fill:#ffff00;font-family:Arial Narrow;-inkscape-font-specification:Arial Narrow Condensed"
         y="47.649902"
         x="11.123416"
         id="tspan3047"
         sodipodi:role="line">60<tspan
   id="tspan3049"
   style="font-size:15.5px;fill:#ffff00">00</tspan></tspan></text>
  </g>
  <g
     inkscape:groupmode="layer"
     id="g3051"
     inkscape:label="6000 red+blue"
     style="display:none"
     transform="translate(0,-8)">
    <path
       style="fill:#ff00ff;fill-opacity:1;fill-rule:nonzero;stroke:none;display:inline"
       d="M 28.00012,9 C 13.088431,9 1.0001195,21.088311 1.0001195,36 c 0,14.911689 12.0883115,27 27.0000005,27 9.363049,0 17.611448,-4.764766 22.454637,-12.003024 l -3.238911,0 C 42.752477,56.708877 35.810894,60.387097 28.00012,60.387097 14.531498,60.387097 3.6130225,49.468622 3.6130225,36 c 0,-13.468622 10.9184755,-24.387097 24.3870975,-24.387097 7.797153,0 14.724259,3.668069 19.188508,9.362904 l 3.266129,0 C 45.609832,13.748327 37.354885,9 28.00012,9 z"
       id="path3053"
       inkscape:export-filename="/Users/vuorijus/src/sailfish/harbour-orienteeringcompass/qml/images/icon_scale_360_white.png"
       inkscape:export-xdpi="92.900002"
       inkscape:export-ydpi="92.900002"
       inkscape:connector-curvature="0" />
    <text
       xml:space="preserve"
       style="font-size:40px;font-style:normal;font-weight:normal;line-height:125%;letter-spacing:0px;word-spacing:0px;fill:#ff00ff;fill-opacity:1;stroke:none;display:inline;font-family:Sans"
       x="11.123416"
       y="47.649902"
       id="text3055"
       sodipodi:linespacing="125%"
       inkscape:export-filename="/Users/vuorijus/src/sailfish/harbour-orienteeringcompass/qml/images/icon_scale_360_white.png"
       inkscape:export-xdpi="92.900002"
       inkscape:export-ydpi="92.900002"><tspan
         sodipodi:role="line"
         id="tspan3057"
         x="11.123416"
         y="47.649902"
         style="font-size:33px;font-style:normal;font-variant:normal;font-weight:normal;font-stretch:condensed;text-align:start;line-height:125%;writing-mode:lr-tb;text-anchor:start;fill:#ff00ff;font-family:Arial Narrow;-inkscape-font-specification:Arial Narrow Condensed">60<tspan
   style="font-size:15.5px;fill:#ff00ff"
   id="tspan3059">00</tspan></tspan></text>
  </g>
  <g
     transform="translate(0,-8)"
     style="display:inline"
     inkscape:label="6000 green+blue"
     id="g3061"
     inkscape:groupmode="layer">
    <path
       inkscape:connector-curvature="0"
       inkscape:export-ydpi="92.900002"
       inkscape:export-xdpi="92.900002"
       inkscape:export-filename="/Users/vuorijus/src/sailfish/harbour-orienteeringcompass/qml/images/icon_scale_360_white.png"
       id="path3063"
       d="M 28.00012,9 C 13.088431,9 1.0001195,21.088311 1.0001195,36 c 0,14.911689 12.0883115,27 27.0000005,27 9.363049,0 17.611448,-4.764766 22.454637,-12.003024 l -3.238911,0 C 42.752477,56.708877 35.810894,60.387097 28.00012,60.387097 14.531498,60.387097 3.6130225,49.468622 3.6130225,36 c 0,-13.468622 10.9184755,-24.387097 24.3870975,-24.387097 7.797153,0 14.724259,3.668069 19.188508,9.362904 l 3.266129,0 C 45.609832,13.748327 37.354885,9 28.00012,9 z"
       style="fill:#00ffff;fill-opacity:1;fill-rule:nonzero;stroke:none;display:inline" />
    <text
       inkscape:export-ydpi="92.900002"
       inkscape:export-xdpi="92.900002"
       inkscape:export-filename="/Users/vuorijus/src/sailfish/harbour-orienteeringcompass/qml/images/icon_scale_360_white.png"
       sodipodi:linespacing="125%"
       id="text3065"
       y="47.649902"
       x="11.123416"
       style="font-size:40px;font-style:normal;font-weight:normal;line-height:125%;letter-spacing:0px;word-spacing:0px;fill:#00ffff;fill-opacity:1;stroke:none;display:inline;font-family:Sans"
       xml:space="preserve"><tspan
         style="font-size:33px;font-style:normal;font-variant:normal;font-weight:normal;font-stretch:condensed;text-align:start;line-height:125%;writing-mode:lr-tb;text-anchor:start;fill:#00ffff;font-family:Arial Narrow;-inkscape-font-specification:Arial Narrow Condensed"
         y="47.649902"
         x="11.123416"
         id="tspan3067"
         sodipodi:role="line">60<tspan
   id="tspan3069"
   style="font-size:15.5px;fill:#00ffff">00</tspan></tspan></text>
  </g>
</svg>
