<?xml version="1.0" encoding="UTF-8" standalone="no"?>
<!-- Created with Inkscape (http://www.inkscape.org/) -->

<svg
   xmlns:dc="http://purl.org/dc/elements/1.1/"
   xmlns:cc="http://creativecommons.org/ns#"
   xmlns:rdf="http://www.w3.org/1999/02/22-rdf-syntax-ns#"
   xmlns:svg="http://www.w3.org/2000/svg"
   xmlns="http://www.w3.org/2000/svg"
   xmlns:xlink="http://www.w3.org/1999/xlink"
   xmlns:sodipodi="http://sodipodi.sourceforge.net/DTD/sodipodi-0.dtd"
   xmlns:inkscape="http://www.inkscape.org/namespaces/inkscape"
   width="56"
   height="56"
   id="svg3055"
   version="1.1"
   inkscape:version="0.48.2 r9819"
   sodipodi:docname="icon_nightmode.svg"
   inkscape:export-filename="/Users/vuorijus/src/sailfish/harbour-orienteeringcompass/qml/images/icon_nightmode_auto_white.png"
   inkscape:export-xdpi="90"
   inkscape:export-ydpi="90">
  <defs
     id="defs3057">
    <linearGradient
       inkscape:collect="always"
       xlink:href="#linearGradient5801"
       id="linearGradient5807"
       x1="-0.16216278"
       y1="15.162162"
       x2="21.135136"
       y2="15.162162"
       gradientUnits="userSpaceOnUse" />
    <linearGradient
       inkscape:collect="always"
       id="linearGradient5801">
      <stop
         style="stop-color:#000000;stop-opacity:1"
         offset="0"
         id="stop5803" />
      <stop
         style="stop-color:#4d4d4d;stop-opacity:1"
         offset="1"
         id="stop5805" />
    </linearGradient>
  </defs>
  <sodipodi:namedview
     id="base"
     pagecolor="#ffffff"
     bordercolor="#666666"
     borderopacity="1.0"
     inkscape:pageopacity="0.0"
     inkscape:pageshadow="2"
     inkscape:zoom="9.9657862"
     inkscape:cx="39.826433"
     inkscape:cy="25.664594"
     inkscape:current-layer="g3469"
     showgrid="true"
     inkscape:document-units="px"
     inkscape:grid-bbox="true"
     inkscape:window-width="1390"
     inkscape:window-height="856"
     inkscape:window-x="50"
     inkscape:window-y="0"
     inkscape:window-maximized="0" />
  <metadata
     id="metadata3060">
    <rdf:RDF>
      <cc:Work
         rdf:about="">
        <dc:format>image/svg+xml</dc:format>
        <dc:type
           rdf:resource="http://purl.org/dc/dcmitype/StillImage" />
        <dc:title></dc:title>
      </cc:Work>
    </rdf:RDF>
  </metadata>
  <g
     inkscape:groupmode="layer"
     id="layer2"
     inkscape:label="Background"
     style="display:none"
     transform="translate(0,-8)">
    <rect
       style="fill:#803300;fill-opacity:1;fill-rule:nonzero;stroke:none"
       id="rect3087"
       width="56"
       height="56"
       x="0"
       y="8" />
    <rect
       style="fill:#000000;fill-opacity:1;fill-rule:nonzero;stroke:none"
       id="rect3384"
       width="56"
       height="1"
       x="-64"
       y="27.5"
       transform="matrix(0,-1,1,0,0,0)" />
    <rect
       transform="matrix(-0.58778525,-0.80901699,0.80901699,-0.58778525,0,0)"
       y="0.99220675"
       x="-73.582596"
       height="1"
       width="56"
       id="rect3386"
       style="fill:#000000;fill-opacity:1;fill-rule:nonzero;stroke:none" />
    <rect
       style="fill:#000000;fill-opacity:1;fill-rule:nonzero;stroke:none"
       id="rect3388"
       width="56"
       height="1"
       x="-65.754189"
       y="-26.085556"
       transform="matrix(-0.95105652,-0.30901699,0.30901699,-0.95105652,0,0)" />
    <rect
       transform="matrix(-0.95105651,0.309017,-0.309017,-0.95105651,0,0)"
       y="-43.390507"
       x="-43.504967"
       height="1"
       width="56"
       id="rect3390"
       style="fill:#000000;fill-opacity:1;fill-rule:nonzero;stroke:none" />
    <rect
       style="fill:#000000;fill-opacity:1;fill-rule:nonzero;stroke:none"
       id="rect3392"
       width="56"
       height="1"
       x="-15.333374"
       y="-44.31274"
       transform="matrix(-0.58778525,0.809017,-0.809017,-0.58778525,0,0)" />
    <path
       style="fill:#333333;fill-opacity:1;fill-rule:nonzero;stroke:none;display:inline"
       d="M 28,9 C 13.088312,9 1,21.088312 1,36 1,50.911688 13.088312,63 28,63 42.911688,63 55,50.911688 55,36 55,21.088312 42.911688,9 28,9 z m 0,3 C 41.254834,12 52,22.745166 52,36 52,49.254834 41.254834,60 28,60 14.745166,60 4,49.254834 4,36 4,22.745166 14.745166,12 28,12 z"
       id="path3082-2-9"
       inkscape:connector-curvature="0" />
  </g>
  <g
     inkscape:groupmode="layer"
     id="layer7"
     inkscape:label="Day white"
     style="display:none">
    <path
       sodipodi:type="arc"
       style="fill:#ffffff;fill-opacity:1;fill-rule:nonzero;stroke:none"
       id="path3191"
       sodipodi:cx="19.165573"
       sodipodi:cy="17.668854"
       sodipodi:rx="18.964886"
       sodipodi:ry="17.760767"
       d="m 38.130459,17.668854 a 18.964886,17.760767 0 1 1 -37.92977159,0 18.964886,17.760767 0 1 1 37.92977159,0 z"
       transform="matrix(0.89639349,0,0,0.95716587,10.820105,11.087976)" />
    <path
       sodipodi:type="arc"
       style="fill:#ffffff;fill-opacity:1;fill-rule:nonzero;stroke:none"
       id="path3213"
       sodipodi:cx="0.90308982"
       sodipodi:cy="27.301813"
       sodipodi:rx="3.3113294"
       sodipodi:ry="3.4116726"
       d="m 4.2144192,27.301813 a 3.3113294,3.4116726 0 1 1 -6.6226587,0 3.3113294,3.4116726 0 1 1 6.6226587,0 z"
       transform="matrix(0.90598055,0,0,0.87933409,4.3391994,-3.4684764)" />
    <path
       transform="matrix(0.90598055,0,0,0.87933409,49.895063,-3.6189913)"
       d="m 4.2144192,27.301813 a 3.3113294,3.4116726 0 1 1 -6.6226587,0 3.3113294,3.4116726 0 1 1 6.6226587,0 z"
       sodipodi:ry="3.4116726"
       sodipodi:rx="3.3113294"
       sodipodi:cy="27.301813"
       sodipodi:cx="0.90308982"
       id="path3216"
       style="fill:#ffffff;fill-opacity:1;fill-rule:nonzero;stroke:none"
       sodipodi:type="arc" />
    <path
       sodipodi:type="arc"
       style="fill:#ffffff;fill-opacity:1;fill-rule:nonzero;stroke:none"
       id="path3218"
       sodipodi:cx="0.90308982"
       sodipodi:cy="27.301813"
       sodipodi:rx="3.3113294"
       sodipodi:ry="3.4116726"
       d="m 4.2144192,27.301813 a 3.3113294,3.4116726 0 1 1 -6.6226587,0 3.3113294,3.4116726 0 1 1 6.6226587,0 z"
       transform="matrix(0.90598055,0,0,0.87933409,27.117131,-20.075294)" />
    <path
       transform="matrix(0.90598055,0,0,0.87933409,27.117131,27.989153)"
       d="m 4.2144192,27.301813 a 3.3113294,3.4116726 0 1 1 -6.6226587,0 3.3113294,3.4116726 0 1 1 6.6226587,0 z"
       sodipodi:ry="3.4116726"
       sodipodi:rx="3.3113294"
       sodipodi:cy="27.301813"
       sodipodi:cx="0.90308982"
       id="path3220"
       style="fill:#ffffff;fill-opacity:1;fill-rule:nonzero;stroke:none"
       sodipodi:type="arc" />
    <path
       sodipodi:type="arc"
       style="fill:#ffffff;fill-opacity:1;fill-rule:nonzero;stroke:none"
       id="path3222"
       sodipodi:cx="0.90308982"
       sodipodi:cy="27.301813"
       sodipodi:rx="3.3113294"
       sodipodi:ry="3.4116726"
       d="m 4.2144192,27.301813 a 3.3113294,3.4116726 0 1 1 -6.6226587,0 3.3113294,3.4116726 0 1 1 6.6226587,0 z"
       transform="matrix(0.90598055,0,0,0.87933409,12.86838,-15.40933)" />
    <path
       transform="matrix(0.90598055,0,0,0.87933409,41.265537,-15.509673)"
       d="m 4.2144192,27.301813 a 3.3113294,3.4116726 0 1 1 -6.6226587,0 3.3113294,3.4116726 0 1 1 6.6226587,0 z"
       sodipodi:ry="3.4116726"
       sodipodi:rx="3.3113294"
       sodipodi:cy="27.301813"
       sodipodi:cx="0.90308982"
       id="path3224"
       style="fill:#ffffff;fill-opacity:1;fill-rule:nonzero;stroke:none"
       sodipodi:type="arc" />
    <path
       transform="matrix(0.90598055,0,0,0.87933409,13.069066,23.373361)"
       d="m 4.2144192,27.301813 a 3.3113294,3.4116726 0 1 1 -6.6226587,0 3.3113294,3.4116726 0 1 1 6.6226587,0 z"
       sodipodi:ry="3.4116726"
       sodipodi:rx="3.3113294"
       sodipodi:cy="27.301813"
       sodipodi:cx="0.90308982"
       id="path3226"
       style="fill:#ffffff;fill-opacity:1;fill-rule:nonzero;stroke:none"
       sodipodi:type="arc" />
    <path
       sodipodi:type="arc"
       style="fill:#ffffff;fill-opacity:1;fill-rule:nonzero;stroke:none"
       id="path3228"
       sodipodi:cx="0.90308982"
       sodipodi:cy="27.301813"
       sodipodi:rx="3.3113294"
       sodipodi:ry="3.4116726"
       d="m 4.2144192,27.301813 a 3.3113294,3.4116726 0 1 1 -6.6226587,0 3.3113294,3.4116726 0 1 1 6.6226587,0 z"
       transform="matrix(0.90598055,0,0,0.87933409,41.265537,23.473703)" />
    <path
       sodipodi:type="arc"
       style="fill:#ffffff;fill-opacity:1;fill-rule:nonzero;stroke:none"
       id="path3232"
       sodipodi:cx="0.90308982"
       sodipodi:cy="27.301813"
       sodipodi:rx="3.3113294"
       sodipodi:ry="3.4116726"
       d="m 4.2144192,27.301813 a 3.3113294,3.4116726 0 1 1 -6.6226587,0 3.3113294,3.4116726 0 1 1 6.6226587,0 z"
       transform="matrix(0.90598055,0,0,0.87933409,50.09575,11.532848)" />
    <path
       transform="matrix(0.90598055,0,0,0.87933409,4.389371,11.532848)"
       d="m 4.2144192,27.301813 a 3.3113294,3.4116726 0 1 1 -6.6226587,0 3.3113294,3.4116726 0 1 1 6.6226587,0 z"
       sodipodi:ry="3.4116726"
       sodipodi:rx="3.3113294"
       sodipodi:cy="27.301813"
       sodipodi:cx="0.90308982"
       id="path3234"
       style="fill:#ffffff;fill-opacity:1;fill-rule:nonzero;stroke:none"
       sodipodi:type="arc" />
  </g>
  <g
     inkscape:groupmode="layer"
     id="layer6"
     inkscape:label="Night white"
     style="display:none">
    <path
       style="fill:#ffffff;fill-opacity:1;stroke:none;display:inline"
       d="m 40.371407,55.246101 c -14.911688,0 -26.999998,-12.088312 -26.999998,-27 0,-14.911687 12.08831,-26.9999998 26.999998,-26.9999998 l 0,0 c 0,0 -6.65452,9.9304628 -6.461612,26.3644308 0.205099,16.916964 6.461612,27.635569 6.461612,27.635569 z"
       id="path5784"
       inkscape:connector-curvature="0"
       sodipodi:nodetypes="cssccc" />
  </g>
  <g
     style="display:inline"
     inkscape:label="Auto white v1"
     id="g3469"
     inkscape:groupmode="layer">
    <path
       transform="matrix(0.90598055,0,0,0.87933409,4.3391994,-3.4684764)"
       d="m 4.2144192,27.301813 a 3.3113294,3.4116726 0 1 1 -6.6226587,0 3.3113294,3.4116726 0 1 1 6.6226587,0 z"
       sodipodi:ry="3.4116726"
       sodipodi:rx="3.3113294"
       sodipodi:cy="27.301813"
       sodipodi:cx="0.90308982"
       id="path3473"
       style="fill:#ffffff;fill-opacity:1;fill-rule:nonzero;stroke:none"
       sodipodi:type="arc"
       inkscape:export-filename="/Users/vuorijus/src/sailfish/harbour-orienteeringcompass/qml/images/icon_nightmode_auto_white.png"
       inkscape:export-xdpi="92.900002"
       inkscape:export-ydpi="92.900002" />
    <path
       sodipodi:type="arc"
       style="fill:#ffffff;fill-opacity:1;fill-rule:nonzero;stroke:none"
       id="path3475"
       sodipodi:cx="0.90308982"
       sodipodi:cy="27.301813"
       sodipodi:rx="3.3113294"
       sodipodi:ry="3.4116726"
       d="m 4.2144192,27.301813 a 3.3113294,3.4116726 0 1 1 -6.6226587,0 3.3113294,3.4116726 0 1 1 6.6226587,0 z"
       transform="matrix(0.90598055,0,0,0.87933409,49.895063,-3.6189913)"
       inkscape:export-filename="/Users/vuorijus/src/sailfish/harbour-orienteeringcompass/qml/images/icon_nightmode_auto_white.png"
       inkscape:export-xdpi="92.900002"
       inkscape:export-ydpi="92.900002" />
    <path
       transform="matrix(0.90598055,0,0,0.87933409,27.117131,-20.075294)"
       d="m 4.2144192,27.301813 a 3.3113294,3.4116726 0 1 1 -6.6226587,0 3.3113294,3.4116726 0 1 1 6.6226587,0 z"
       sodipodi:ry="3.4116726"
       sodipodi:rx="3.3113294"
       sodipodi:cy="27.301813"
       sodipodi:cx="0.90308982"
       id="path3477"
       style="fill:#ffffff;fill-opacity:1;fill-rule:nonzero;stroke:none"
       sodipodi:type="arc"
       inkscape:export-filename="/Users/vuorijus/src/sailfish/harbour-orienteeringcompass/qml/images/icon_nightmode_auto_white.png"
       inkscape:export-xdpi="92.900002"
       inkscape:export-ydpi="92.900002" />
    <path
       sodipodi:type="arc"
       style="fill:#ffffff;fill-opacity:1;fill-rule:nonzero;stroke:none"
       id="path3479"
       sodipodi:cx="0.90308982"
       sodipodi:cy="27.301813"
       sodipodi:rx="3.3113294"
       sodipodi:ry="3.4116726"
       d="m 4.2144192,27.301813 a 3.3113294,3.4116726 0 1 1 -6.6226587,0 3.3113294,3.4116726 0 1 1 6.6226587,0 z"
       transform="matrix(0.90598055,0,0,0.87933409,27.117131,27.989153)"
       inkscape:export-filename="/Users/vuorijus/src/sailfish/harbour-orienteeringcompass/qml/images/icon_nightmode_auto_white.png"
       inkscape:export-xdpi="92.900002"
       inkscape:export-ydpi="92.900002" />
    <path
       transform="matrix(0.90598055,0,0,0.87933409,12.86838,-15.40933)"
       d="m 4.2144192,27.301813 a 3.3113294,3.4116726 0 1 1 -6.6226587,0 3.3113294,3.4116726 0 1 1 6.6226587,0 z"
       sodipodi:ry="3.4116726"
       sodipodi:rx="3.3113294"
       sodipodi:cy="27.301813"
       sodipodi:cx="0.90308982"
       id="path3481"
       style="fill:#ffffff;fill-opacity:1;fill-rule:nonzero;stroke:none"
       sodipodi:type="arc"
       inkscape:export-filename="/Users/vuorijus/src/sailfish/harbour-orienteeringcompass/qml/images/icon_nightmode_auto_white.png"
       inkscape:export-xdpi="92.900002"
       inkscape:export-ydpi="92.900002" />
    <path
       sodipodi:type="arc"
       style="fill:#ffffff;fill-opacity:1;fill-rule:nonzero;stroke:none"
       id="path3483"
       sodipodi:cx="0.90308982"
       sodipodi:cy="27.301813"
       sodipodi:rx="3.3113294"
       sodipodi:ry="3.4116726"
       d="m 4.2144192,27.301813 a 3.3113294,3.4116726 0 1 1 -6.6226587,0 3.3113294,3.4116726 0 1 1 6.6226587,0 z"
       transform="matrix(0.90598055,0,0,0.87933409,41.265537,-15.509673)"
       inkscape:export-filename="/Users/vuorijus/src/sailfish/harbour-orienteeringcompass/qml/images/icon_nightmode_auto_white.png"
       inkscape:export-xdpi="92.900002"
       inkscape:export-ydpi="92.900002" />
    <path
       sodipodi:type="arc"
       style="fill:#ffffff;fill-opacity:1;fill-rule:nonzero;stroke:none"
       id="path3485"
       sodipodi:cx="0.90308982"
       sodipodi:cy="27.301813"
       sodipodi:rx="3.3113294"
       sodipodi:ry="3.4116726"
       d="m 4.2144192,27.301813 a 3.3113294,3.4116726 0 1 1 -6.6226587,0 3.3113294,3.4116726 0 1 1 6.6226587,0 z"
       transform="matrix(0.90598055,0,0,0.87933409,13.069066,23.373361)"
       inkscape:export-filename="/Users/vuorijus/src/sailfish/harbour-orienteeringcompass/qml/images/icon_nightmode_auto_white.png"
       inkscape:export-xdpi="92.900002"
       inkscape:export-ydpi="92.900002" />
    <path
       transform="matrix(0.90598055,0,0,0.87933409,41.265537,23.473703)"
       d="m 4.2144192,27.301813 a 3.3113294,3.4116726 0 1 1 -6.6226587,0 3.3113294,3.4116726 0 1 1 6.6226587,0 z"
       sodipodi:ry="3.4116726"
       sodipodi:rx="3.3113294"
       sodipodi:cy="27.301813"
       sodipodi:cx="0.90308982"
       id="path3487"
       style="fill:#ffffff;fill-opacity:1;fill-rule:nonzero;stroke:none"
       sodipodi:type="arc"
       inkscape:export-filename="/Users/vuorijus/src/sailfish/harbour-orienteeringcompass/qml/images/icon_nightmode_auto_white.png"
       inkscape:export-xdpi="92.900002"
       inkscape:export-ydpi="92.900002" />
    <path
       transform="matrix(0.90598055,0,0,0.87933409,50.09575,11.532848)"
       d="m 4.2144192,27.301813 a 3.3113294,3.4116726 0 1 1 -6.6226587,0 3.3113294,3.4116726 0 1 1 6.6226587,0 z"
       sodipodi:ry="3.4116726"
       sodipodi:rx="3.3113294"
       sodipodi:cy="27.301813"
       sodipodi:cx="0.90308982"
       id="path3489"
       style="fill:#ffffff;fill-opacity:1;fill-rule:nonzero;stroke:none"
       sodipodi:type="arc"
       inkscape:export-filename="/Users/vuorijus/src/sailfish/harbour-orienteeringcompass/qml/images/icon_nightmode_auto_white.png"
       inkscape:export-xdpi="92.900002"
       inkscape:export-ydpi="92.900002" />
    <path
       sodipodi:type="arc"
       style="fill:#ffffff;fill-opacity:1;fill-rule:nonzero;stroke:none"
       id="path3491"
       sodipodi:cx="0.90308982"
       sodipodi:cy="27.301813"
       sodipodi:rx="3.3113294"
       sodipodi:ry="3.4116726"
       d="m 4.2144192,27.301813 a 3.3113294,3.4116726 0 1 1 -6.6226587,0 3.3113294,3.4116726 0 1 1 6.6226587,0 z"
       transform="matrix(0.90598055,0,0,0.87933409,4.389371,11.532848)"
       inkscape:export-filename="/Users/vuorijus/src/sailfish/harbour-orienteeringcompass/qml/images/icon_nightmode_auto_white.png"
       inkscape:export-xdpi="92.900002"
       inkscape:export-ydpi="92.900002" />
    <text
       xml:space="preserve"
       style="font-size:40px;font-style:normal;font-weight:normal;line-height:125%;letter-spacing:0px;word-spacing:0px;fill:#ffffff;fill-opacity:1;stroke:none;display:inline;font-family:Sans"
       x="16.505371"
       y="41.24633"
       id="text3089-9-3"
       sodipodi:linespacing="125%"
       inkscape:export-filename="/Users/vuorijus/src/sailfish/harbour-orienteeringcompass/qml/images/icon_nightmode_auto_white.png"
       inkscape:export-xdpi="92.900002"
       inkscape:export-ydpi="92.900002"><tspan
         sodipodi:role="line"
         id="tspan3091-8-2"
         x="16.505371"
         y="41.24633"
         style="font-size:42px;font-style:normal;font-variant:normal;font-weight:normal;font-stretch:condensed;text-align:start;line-height:125%;writing-mode:lr-tb;text-anchor:start;fill:#ffffff;font-family:Arial Narrow;-inkscape-font-specification:Arial Narrow Condensed">A</tspan></text>
  </g>
  <g
     style="display:none"
     inkscape:label="Auto white try3"
     id="g3412"
     inkscape:groupmode="layer">
    <path
       transform="matrix(0.90598055,0,0,0.87933409,4.3391994,-3.4684764)"
       d="m 4.2144192,27.301813 a 3.3113294,3.4116726 0 1 1 -6.6226587,0 3.3113294,3.4116726 0 1 1 6.6226587,0 z"
       sodipodi:ry="3.4116726"
       sodipodi:rx="3.3113294"
       sodipodi:cy="27.301813"
       sodipodi:cx="0.90308982"
       id="path3416"
       style="fill:#ffffff;fill-opacity:1;fill-rule:nonzero;stroke:none"
       sodipodi:type="arc" />
    <path
       sodipodi:type="arc"
       style="fill:#ffffff;fill-opacity:1;fill-rule:nonzero;stroke:none"
       id="path3418"
       sodipodi:cx="0.90308982"
       sodipodi:cy="27.301813"
       sodipodi:rx="3.3113294"
       sodipodi:ry="3.4116726"
       d="m 4.2144192,27.301813 a 3.3113294,3.4116726 0 1 1 -6.6226587,0 3.3113294,3.4116726 0 1 1 6.6226587,0 z"
       transform="matrix(0.90598055,0,0,0.87933409,49.895063,-3.6189913)" />
    <path
       transform="matrix(0.90598055,0,0,0.87933409,27.117131,-20.075294)"
       d="m 4.2144192,27.301813 a 3.3113294,3.4116726 0 1 1 -6.6226587,0 3.3113294,3.4116726 0 1 1 6.6226587,0 z"
       sodipodi:ry="3.4116726"
       sodipodi:rx="3.3113294"
       sodipodi:cy="27.301813"
       sodipodi:cx="0.90308982"
       id="path3420"
       style="fill:#ffffff;fill-opacity:1;fill-rule:nonzero;stroke:none"
       sodipodi:type="arc" />
    <path
       transform="matrix(0.90598055,0,0,0.87933409,12.86838,-15.40933)"
       d="m 4.2144192,27.301813 a 3.3113294,3.4116726 0 1 1 -6.6226587,0 3.3113294,3.4116726 0 1 1 6.6226587,0 z"
       sodipodi:ry="3.4116726"
       sodipodi:rx="3.3113294"
       sodipodi:cy="27.301813"
       sodipodi:cx="0.90308982"
       id="path3424"
       style="fill:#ffffff;fill-opacity:1;fill-rule:nonzero;stroke:none"
       sodipodi:type="arc" />
    <path
       sodipodi:type="arc"
       style="fill:#ffffff;fill-opacity:1;fill-rule:nonzero;stroke:none"
       id="path3426"
       sodipodi:cx="0.90308982"
       sodipodi:cy="27.301813"
       sodipodi:rx="3.3113294"
       sodipodi:ry="3.4116726"
       d="m 4.2144192,27.301813 a 3.3113294,3.4116726 0 1 1 -6.6226587,0 3.3113294,3.4116726 0 1 1 6.6226587,0 z"
       transform="matrix(0.90598055,0,0,0.87933409,41.265537,-15.509673)" />
    <path
       transform="matrix(0.90598055,0,0,0.87933409,50.09575,11.532848)"
       d="m 4.2144192,27.301813 a 3.3113294,3.4116726 0 1 1 -6.6226587,0 3.3113294,3.4116726 0 1 1 6.6226587,0 z"
       sodipodi:ry="3.4116726"
       sodipodi:rx="3.3113294"
       sodipodi:cy="27.301813"
       sodipodi:cx="0.90308982"
       id="path3432"
       style="fill:#ffffff;fill-opacity:1;fill-rule:nonzero;stroke:none"
       sodipodi:type="arc" />
    <path
       sodipodi:type="arc"
       style="fill:#ffffff;fill-opacity:1;fill-rule:nonzero;stroke:none"
       id="path3434"
       sodipodi:cx="0.90308982"
       sodipodi:cy="27.301813"
       sodipodi:rx="3.3113294"
       sodipodi:ry="3.4116726"
       d="m 4.2144192,27.301813 a 3.3113294,3.4116726 0 1 1 -6.6226587,0 3.3113294,3.4116726 0 1 1 6.6226587,0 z"
       transform="matrix(0.90598055,0,0,0.87933409,4.389371,11.532848)" />
    <text
       xml:space="preserve"
       style="font-size:40px;font-style:normal;font-weight:normal;line-height:125%;letter-spacing:0px;word-spacing:0px;fill:#ffffff;fill-opacity:1;stroke:none;display:inline;font-family:Sans"
       x="1.303669"
       y="55.091061"
       id="text3089-9-0"
       sodipodi:linespacing="125%"
       inkscape:export-filename="/Users/vuorijus/src/sailfish/harbour-orienteeringcompass/qml/images/icon_scale_360_white.png"
       inkscape:export-xdpi="92.900002"
       inkscape:export-ydpi="92.900002"><tspan
         sodipodi:role="line"
         id="tspan3091-8-1"
         x="1.303669"
         y="55.091061"
         style="font-size:24px;font-style:normal;font-variant:normal;font-weight:normal;font-stretch:condensed;text-align:start;line-height:125%;writing-mode:lr-tb;text-anchor:start;fill:#ffffff;font-family:Arial Narrow;-inkscape-font-specification:Arial Narrow Condensed">AUTO</tspan></text>
  </g>
  <g
     inkscape:groupmode="layer"
     id="layer8"
     inkscape:label="Auto white"
     style="display:none">
    <path
       style="fill:#333333;fill-opacity:1;fill-rule:nonzero;stroke:none;display:inline"
       d="M 28,1 C 13.088312,1 1,13.088312 1,28 1,42.911688 13.088312,55 28,55 42.911688,55 55,42.911688 55,28 55,13.088312 42.911688,1 28,1 z m 0,3 C 41.254834,4 52,14.745166 52,28 52,41.254834 41.254834,52 28,52 14.745166,52 4,41.254834 4,28 4,14.745166 14.745166,4 28,4 z"
       id="path3082-2-9-2"
       inkscape:connector-curvature="0" />
    <path
       sodipodi:type="arc"
       style="fill:#ffffff;fill-opacity:1;fill-rule:nonzero;stroke:none;display:inline"
       id="path3213-0"
       sodipodi:cx="0.90308982"
       sodipodi:cy="27.301813"
       sodipodi:rx="3.3113294"
       sodipodi:ry="3.4116726"
       d="m 4.2144192,27.301813 a 3.3113294,3.4116726 0 1 1 -6.6226587,0 3.3113294,3.4116726 0 1 1 6.6226587,0 z"
       transform="matrix(0.90598055,0,0,0.87933409,3.9523412,-3.533164)" />
    <path
       transform="matrix(0.90598055,0,0,0.87933409,50.411295,-3.13179)"
       d="m 4.2144192,27.301813 a 3.3113294,3.4116726 0 1 1 -6.6226587,0 3.3113294,3.4116726 0 1 1 6.6226587,0 z"
       sodipodi:ry="3.4116726"
       sodipodi:rx="3.3113294"
       sodipodi:cy="27.301813"
       sodipodi:cx="0.90308982"
       id="path3216-6"
       style="fill:#ffffff;fill-opacity:1;fill-rule:nonzero;stroke:none;display:inline"
       sodipodi:type="arc" />
    <path
       sodipodi:type="arc"
       style="fill:#ffffff;fill-opacity:1;fill-rule:nonzero;stroke:none;display:inline"
       id="path3218-7"
       sodipodi:cx="0.90308982"
       sodipodi:cy="27.301813"
       sodipodi:rx="3.3113294"
       sodipodi:ry="3.4116726"
       d="m 4.2144192,27.301813 a 3.3113294,3.4116726 0 1 1 -6.6226587,0 3.3113294,3.4116726 0 1 1 6.6226587,0 z"
       transform="matrix(0.90598055,0,0,0.87933409,26.730273,-20.08981)" />
    <path
       transform="matrix(0.90598055,0,0,0.87933409,27.131646,28.07498)"
       d="m 4.2144192,27.301813 a 3.3113294,3.4116726 0 1 1 -6.6226587,0 3.3113294,3.4116726 0 1 1 6.6226587,0 z"
       sodipodi:ry="3.4116726"
       sodipodi:rx="3.3113294"
       sodipodi:cy="27.301813"
       sodipodi:cx="0.90308982"
       id="path3220-0"
       style="fill:#ffffff;fill-opacity:1;fill-rule:nonzero;stroke:none;display:inline"
       sodipodi:type="arc" />
    <path
       sodipodi:type="arc"
       style="fill:#ffffff;fill-opacity:1;fill-rule:nonzero;stroke:none;display:inline"
       id="path3222-7"
       sodipodi:cx="0.90308982"
       sodipodi:cy="27.301813"
       sodipodi:rx="3.3113294"
       sodipodi:ry="3.4116726"
       d="m 4.2144192,27.301813 a 3.3113294,3.4116726 0 1 1 -6.6226587,0 3.3113294,3.4116726 0 1 1 6.6226587,0 z"
       transform="matrix(0.90598055,0,0,0.87933409,13.585298,-15.975734)" />
    <path
       transform="matrix(0.90598055,0,0,0.87933409,41.179709,-15.373674)"
       d="m 4.2144192,27.301813 a 3.3113294,3.4116726 0 1 1 -6.6226587,0 3.3113294,3.4116726 0 1 1 6.6226587,0 z"
       sodipodi:ry="3.4116726"
       sodipodi:rx="3.3113294"
       sodipodi:cy="27.301813"
       sodipodi:cx="0.90308982"
       id="path3224-3"
       style="fill:#ffffff;fill-opacity:1;fill-rule:nonzero;stroke:none;display:inline"
       sodipodi:type="arc" />
    <path
       transform="matrix(0.90598055,0,0,0.87933409,12.280835,22.957471)"
       d="m 4.2144192,27.301813 a 3.3113294,3.4116726 0 1 1 -6.6226587,0 3.3113294,3.4116726 0 1 1 6.6226587,0 z"
       sodipodi:ry="3.4116726"
       sodipodi:rx="3.3113294"
       sodipodi:cy="27.301813"
       sodipodi:cx="0.90308982"
       id="path3226-3"
       style="fill:#ffffff;fill-opacity:1;fill-rule:nonzero;stroke:none;display:inline"
       sodipodi:type="arc" />
    <path
       sodipodi:type="arc"
       style="fill:#ffffff;fill-opacity:1;fill-rule:nonzero;stroke:none;display:inline"
       id="path3228-2"
       sodipodi:cx="0.90308982"
       sodipodi:cy="27.301813"
       sodipodi:rx="3.3113294"
       sodipodi:ry="3.4116726"
       d="m 4.2144192,27.301813 a 3.3113294,3.4116726 0 1 1 -6.6226587,0 3.3113294,3.4116726 0 1 1 6.6226587,0 z"
       transform="matrix(0.90598055,0,0,0.87933409,41.781769,22.857127)" />
    <path
       transform="matrix(0.90598055,0,0,0.87933409,4.3537152,11.417989)"
       d="m 4.2144192,27.301813 a 3.3113294,3.4116726 0 1 1 -6.6226587,0 3.3113294,3.4116726 0 1 1 6.6226587,0 z"
       sodipodi:ry="3.4116726"
       sodipodi:rx="3.3113294"
       sodipodi:cy="27.301813"
       sodipodi:cx="0.90308982"
       id="path3234-1"
       style="fill:#ffffff;fill-opacity:1;fill-rule:nonzero;stroke:none;display:inline"
       sodipodi:type="arc" />
    <path
       transform="matrix(0.90598055,0,0,0.87933409,50.310951,11.518333)"
       d="m 4.2144192,27.301813 a 3.3113294,3.4116726 0 1 1 -6.6226587,0 3.3113294,3.4116726 0 1 1 6.6226587,0 z"
       sodipodi:ry="3.4116726"
       sodipodi:rx="3.3113294"
       sodipodi:cy="27.301813"
       sodipodi:cx="0.90308982"
       id="path3333"
       style="fill:#ffffff;fill-opacity:1;fill-rule:nonzero;stroke:none;display:inline"
       sodipodi:type="arc" />
    <text
       xml:space="preserve"
       style="font-size:40px;font-style:normal;font-weight:normal;line-height:125%;letter-spacing:0px;word-spacing:0px;fill:#ffffff;fill-opacity:1;stroke:none;display:inline;font-family:Sans"
       x="15.945406"
       y="41.761326"
       id="text3089-9"
       sodipodi:linespacing="125%"
       inkscape:export-filename="/Users/vuorijus/src/sailfish/harbour-orienteeringcompass/qml/images/icon_scale_360_white.png"
       inkscape:export-xdpi="92.900002"
       inkscape:export-ydpi="92.900002"><tspan
         sodipodi:role="line"
         id="tspan3091-8"
         x="15.945406"
         y="41.761326"
         style="font-size:44px;font-style:normal;font-variant:normal;font-weight:normal;font-stretch:condensed;text-align:start;line-height:125%;writing-mode:lr-tb;text-anchor:start;fill:#ffffff;font-family:Arial Narrow;-inkscape-font-specification:Arial Narrow Condensed">A</tspan></text>
  </g>
  <g
     style="display:none"
     inkscape:label="Auto white copy"
     id="g3356"
     inkscape:groupmode="layer">
    <path
       inkscape:connector-curvature="0"
       id="path3358"
       d="M 28,1 C 13.088312,1 1,13.088312 1,28 1,42.911688 13.088312,55 28,55 42.911688,55 55,42.911688 55,28 55,13.088312 42.911688,1 28,1 z m 0,3 C 41.254834,4 52,14.745166 52,28 52,41.254834 41.254834,52 28,52 14.745166,52 4,41.254834 4,28 4,14.745166 14.745166,4 28,4 z"
       style="fill:#333333;fill-opacity:1;fill-rule:nonzero;stroke:none;display:inline" />
    <path
       transform="matrix(0.90598055,0,0,0.87933409,3.9523412,-3.533164)"
       d="m 4.2144192,27.301813 a 3.3113294,3.4116726 0 1 1 -6.6226587,0 3.3113294,3.4116726 0 1 1 6.6226587,0 z"
       sodipodi:ry="3.4116726"
       sodipodi:rx="3.3113294"
       sodipodi:cy="27.301813"
       sodipodi:cx="0.90308982"
       id="path3360"
       style="fill:#ffffff;fill-opacity:1;fill-rule:nonzero;stroke:none;display:inline"
       sodipodi:type="arc" />
    <path
       sodipodi:type="arc"
       style="fill:#ffffff;fill-opacity:1;fill-rule:nonzero;stroke:none;display:inline"
       id="path3362"
       sodipodi:cx="0.90308982"
       sodipodi:cy="27.301813"
       sodipodi:rx="3.3113294"
       sodipodi:ry="3.4116726"
       d="m 4.2144192,27.301813 a 3.3113294,3.4116726 0 1 1 -6.6226587,0 3.3113294,3.4116726 0 1 1 6.6226587,0 z"
       transform="matrix(0.90598055,0,0,0.87933409,50.411295,-3.13179)" />
    <path
       transform="matrix(0.90598055,0,0,0.87933409,26.730273,-20.08981)"
       d="m 4.2144192,27.301813 a 3.3113294,3.4116726 0 1 1 -6.6226587,0 3.3113294,3.4116726 0 1 1 6.6226587,0 z"
       sodipodi:ry="3.4116726"
       sodipodi:rx="3.3113294"
       sodipodi:cy="27.301813"
       sodipodi:cx="0.90308982"
       id="path3364"
       style="fill:#ffffff;fill-opacity:1;fill-rule:nonzero;stroke:none;display:inline"
       sodipodi:type="arc" />
    <path
       transform="matrix(0.90598055,0,0,0.87933409,13.585298,-15.975734)"
       d="m 4.2144192,27.301813 a 3.3113294,3.4116726 0 1 1 -6.6226587,0 3.3113294,3.4116726 0 1 1 6.6226587,0 z"
       sodipodi:ry="3.4116726"
       sodipodi:rx="3.3113294"
       sodipodi:cy="27.301813"
       sodipodi:cx="0.90308982"
       id="path3368"
       style="fill:#ffffff;fill-opacity:1;fill-rule:nonzero;stroke:none;display:inline"
       sodipodi:type="arc" />
    <path
       sodipodi:type="arc"
       style="fill:#ffffff;fill-opacity:1;fill-rule:nonzero;stroke:none;display:inline"
       id="path3370"
       sodipodi:cx="0.90308982"
       sodipodi:cy="27.301813"
       sodipodi:rx="3.3113294"
       sodipodi:ry="3.4116726"
       d="m 4.2144192,27.301813 a 3.3113294,3.4116726 0 1 1 -6.6226587,0 3.3113294,3.4116726 0 1 1 6.6226587,0 z"
       transform="matrix(0.90598055,0,0,0.87933409,41.179709,-15.373674)" />
    <path
       sodipodi:type="arc"
       style="fill:#ffffff;fill-opacity:1;fill-rule:nonzero;stroke:none;display:inline"
       id="path3376"
       sodipodi:cx="0.90308982"
       sodipodi:cy="27.301813"
       sodipodi:rx="3.3113294"
       sodipodi:ry="3.4116726"
       d="m 4.2144192,27.301813 a 3.3113294,3.4116726 0 1 1 -6.6226587,0 3.3113294,3.4116726 0 1 1 6.6226587,0 z"
       transform="matrix(0.90598055,0,0,0.87933409,4.3537152,11.417989)" />
    <path
       sodipodi:type="arc"
       style="fill:#ffffff;fill-opacity:1;fill-rule:nonzero;stroke:none;display:inline"
       id="path3378"
       sodipodi:cx="0.90308982"
       sodipodi:cy="27.301813"
       sodipodi:rx="3.3113294"
       sodipodi:ry="3.4116726"
       d="m 4.2144192,27.301813 a 3.3113294,3.4116726 0 1 1 -6.6226587,0 3.3113294,3.4116726 0 1 1 6.6226587,0 z"
       transform="matrix(0.90598055,0,0,0.87933409,50.310951,11.518333)" />
    <text
       inkscape:export-ydpi="92.900002"
       inkscape:export-xdpi="92.900002"
       inkscape:export-filename="/Users/vuorijus/src/sailfish/harbour-orienteeringcompass/qml/images/icon_scale_360_white.png"
       sodipodi:linespacing="125%"
       id="text3380"
       y="54.705612"
       x="11.5303"
       style="font-size:40px;font-style:normal;font-weight:normal;line-height:125%;letter-spacing:0px;word-spacing:0px;fill:#ffffff;fill-opacity:1;stroke:none;display:inline;font-family:Sans"
       xml:space="preserve"><tspan
         style="font-size:60px;font-style:normal;font-variant:normal;font-weight:normal;font-stretch:condensed;text-align:start;line-height:125%;writing-mode:lr-tb;text-anchor:start;fill:#ffffff;font-family:Arial Narrow;-inkscape-font-specification:Arial Narrow Condensed"
         y="54.705612"
         x="11.5303"
         id="tspan3382"
         sodipodi:role="line">A</tspan></text>
  </g>
  <g
     inkscape:groupmode="layer"
     id="layer3"
     inkscape:label="360 src"
     style="display:none"
     transform="translate(0,-8)">
    <path
       sodipodi:type="arc"
       style="fill:#4d4d4d;fill-opacity:1;fill-rule:nonzero;stroke:none;display:inline"
       id="path3082-2"
       sodipodi:cx="38.633743"
       sodipodi:cy="36.165707"
       sodipodi:rx="24.620173"
       sodipodi:ry="24.620173"
       d="m 63.253916,36.165707 a 24.620173,24.620173 0 1 1 -49.240345,0 24.620173,24.620173 0 1 1 49.240345,0 z"
       transform="matrix(1.2591301,0,0,1.2591301,7.7950686,-38.748697)" />
    <path
       transform="matrix(1.1372788,0,0,1.1372788,12.502642,-34.341859)"
       d="m 63.253916,36.165707 a 24.620173,24.620173 0 1 1 -49.240345,0 24.620173,24.620173 0 1 1 49.240345,0 z"
       sodipodi:ry="24.620173"
       sodipodi:rx="24.620173"
       sodipodi:cy="36.165707"
       sodipodi:cx="38.633743"
       id="path3084-1"
       style="fill:#999999;fill-opacity:1;fill-rule:nonzero;stroke:none;display:inline"
       sodipodi:type="arc" />
    <text
       xml:space="preserve"
       style="font-size:40px;font-style:normal;font-weight:normal;line-height:125%;letter-spacing:0px;word-spacing:0px;fill:#000000;fill-opacity:1;stroke:none;display:inline;font-family:Sans"
       x="34.082344"
       y="21.046686"
       id="text3089-1"
       sodipodi:linespacing="125%"><tspan
         sodipodi:role="line"
         id="tspan3091-1"
         x="34.082344"
         y="21.046686"
         style="font-size:40px;font-style:normal;font-variant:normal;font-weight:normal;font-stretch:condensed;text-align:start;line-height:125%;writing-mode:lr-tb;text-anchor:start;font-family:Arial Narrow;-inkscape-font-specification:Arial Narrow Condensed">360</tspan></text>
  </g>
  <g
     id="layer1"
     inkscape:label="360 white"
     inkscape:groupmode="layer"
     style="display:none"
     transform="translate(0,-8)">
    <path
       style="fill:#ffffff;fill-opacity:1;fill-rule:nonzero;stroke:none"
       d="M 28,9 C 13.088311,9 1,21.088311 1,36 1,50.911689 13.088311,63 28,63 37.363049,63 45.611448,58.235234 50.454637,50.996976 l -3.238911,0 C 42.752357,56.708877 35.810774,60.387097 28,60.387097 14.531378,60.387097 3.6129032,49.468622 3.6129032,36 3.6129032,22.531378 14.531378,11.612903 28,11.612903 c 7.797153,0 14.724259,3.668069 19.188508,9.362904 l 3.266129,0 C 45.609712,13.748327 37.354765,9 28,9 z"
       id="path3082"
       inkscape:export-filename="/Users/vuorijus/src/sailfish/harbour-orienteeringcompass/qml/images/icon_scale_360_white.png"
       inkscape:export-xdpi="92.900002"
       inkscape:export-ydpi="92.900002"
       inkscape:connector-curvature="0" />
    <text
       xml:space="preserve"
       style="font-size:40px;font-style:normal;font-weight:normal;line-height:125%;letter-spacing:0px;word-spacing:0px;fill:#ffffff;fill-opacity:1;stroke:none;font-family:Sans"
       x="11.123297"
       y="47.649902"
       id="text3089"
       sodipodi:linespacing="125%"
       inkscape:export-filename="/Users/vuorijus/src/sailfish/harbour-orienteeringcompass/qml/images/icon_scale_360_white.png"
       inkscape:export-xdpi="92.900002"
       inkscape:export-ydpi="92.900002"><tspan
         sodipodi:role="line"
         id="tspan3091"
         x="11.123297"
         y="47.649902"
         style="font-size:33px;font-style:normal;font-variant:normal;font-weight:normal;font-stretch:condensed;text-align:start;line-height:125%;writing-mode:lr-tb;text-anchor:start;fill:#ffffff;font-family:Arial Narrow;-inkscape-font-specification:Arial Narrow Condensed">360</tspan></text>
  </g>
  <g
     inkscape:groupmode="layer"
     id="layer4"
     inkscape:label="400 white"
     style="display:none"
     transform="translate(0,-8)">
    <path
       style="fill:#ffffff;fill-opacity:1;fill-rule:nonzero;stroke:none;display:inline"
       d="M 28.00012,9 C 13.088431,9 1.0001198,21.088311 1.0001198,36 c 0,14.911689 12.0883112,27 27.0000002,27 9.363049,0 17.611448,-4.764766 22.454637,-12.003024 l -3.238911,0 C 42.752477,56.708877 35.810894,60.387097 28.00012,60.387097 14.531498,60.387097 3.6130228,49.468622 3.6130228,36 c 0,-13.468622 10.9184752,-24.387097 24.3870972,-24.387097 7.797153,0 14.724259,3.668069 19.188508,9.362904 l 3.266129,0 C 45.609832,13.748327 37.354885,9 28.00012,9 z"
       id="path3082-7"
       inkscape:export-filename="/Users/vuorijus/src/sailfish/harbour-orienteeringcompass/qml/images/icon_scale_360_white.png"
       inkscape:export-xdpi="92.900002"
       inkscape:export-ydpi="92.900002"
       inkscape:connector-curvature="0" />
    <text
       xml:space="preserve"
       style="font-size:40px;font-style:normal;font-weight:normal;line-height:125%;letter-spacing:0px;word-spacing:0px;fill:#ffffff;fill-opacity:1;stroke:none;display:inline;font-family:Sans"
       x="11.123415"
       y="47.649902"
       id="text3089-2"
       sodipodi:linespacing="125%"
       inkscape:export-filename="/Users/vuorijus/src/sailfish/harbour-orienteeringcompass/qml/images/icon_scale_360_white.png"
       inkscape:export-xdpi="92.900002"
       inkscape:export-ydpi="92.900002"><tspan
         sodipodi:role="line"
         id="tspan3091-3"
         x="11.123415"
         y="47.649902"
         style="font-size:33px;font-style:normal;font-variant:normal;font-weight:normal;font-stretch:condensed;text-align:start;line-height:125%;writing-mode:lr-tb;text-anchor:start;fill:#ffffff;font-family:Arial Narrow;-inkscape-font-specification:Arial Narrow Condensed">400</tspan></text>
  </g>
  <g
     inkscape:groupmode="layer"
     id="layer5"
     inkscape:label="6000 white"
     style="display:none"
     transform="translate(0,-8)">
    <path
       style="fill:#ffffff;fill-opacity:1;fill-rule:nonzero;stroke:none;display:inline"
       d="M 28.00012,9 C 13.088431,9 1.0001195,21.088311 1.0001195,36 c 0,14.911689 12.0883115,27 27.0000005,27 9.363049,0 17.611448,-4.764766 22.454637,-12.003024 l -3.238911,0 C 42.752477,56.708877 35.810894,60.387097 28.00012,60.387097 14.531498,60.387097 3.6130225,49.468622 3.6130225,36 c 0,-13.468622 10.9184755,-24.387097 24.3870975,-24.387097 7.797153,0 14.724259,3.668069 19.188508,9.362904 l 3.266129,0 C 45.609832,13.748327 37.354885,9 28.00012,9 z"
       id="path3082-3"
       inkscape:export-filename="/Users/vuorijus/src/sailfish/harbour-orienteeringcompass/qml/images/icon_scale_360_white.png"
       inkscape:export-xdpi="92.900002"
       inkscape:export-ydpi="92.900002"
       inkscape:connector-curvature="0" />
    <text
       xml:space="preserve"
       style="font-size:40px;font-style:normal;font-weight:normal;line-height:125%;letter-spacing:0px;word-spacing:0px;fill:#ffffff;fill-opacity:1;stroke:none;display:inline;font-family:Sans"
       x="11.123416"
       y="47.649902"
       id="text3089-3"
       sodipodi:linespacing="125%"
       inkscape:export-filename="/Users/vuorijus/src/sailfish/harbour-orienteeringcompass/qml/images/icon_scale_360_white.png"
       inkscape:export-xdpi="92.900002"
       inkscape:export-ydpi="92.900002"><tspan
         sodipodi:role="line"
         id="tspan3091-4"
         x="11.123416"
         y="47.649902"
         style="font-size:33px;font-style:normal;font-variant:normal;font-weight:normal;font-stretch:condensed;text-align:start;line-height:125%;writing-mode:lr-tb;text-anchor:start;fill:#ffffff;font-family:Arial Narrow;-inkscape-font-specification:Arial Narrow Condensed">60<tspan
   style="font-size:15.5px"
   id="tspan3199">00</tspan></tspan></text>
  </g>
</svg>
